HasubiMono-Heavy.ufo
<glyph name="ampersand" format="2">
  <advance width="512"/>
  <unicode hex="0026"/>
  <outline>
    <contour>
      <point x="180" y="-15" type="curve" smooth="yes"/>
      <point x="253" y="-15"/>
      <point x="297" y="28"/>
      <point x="346" y="94" type="curve"/>
      <point x="354" y="94" type="line"/>
      <point x="443" y="0" type="line"/>
      <point x="451" y="0" type="line"/>
      <point x="490" y="38" type="line"/>
      <point x="490" y="46" type="line"/>
      <point x="393" y="154" type="line"/>
      <point x="393" y="162" type="line"/>
      <point x="427" y="208"/>
      <point x="440" y="241"/>
      <point x="452" y="306" type="curve"/>
      <point x="444" y="314" type="line"/>
      <point x="390" y="314" type="line"/>
      <point x="382" y="306" type="line"/>
      <point x="370" y="259"/>
      <point x="363" y="239"/>
      <point x="343" y="209" type="curve"/>
      <point x="335" y="209" type="line"/>
      <point x="203" y="360" type="line"/>
      <point x="203" y="365" type="line"/>
      <point x="292" y="447"/>
      <point x="352" y="477"/>
      <point x="352" y="574" type="curve" smooth="yes"/>
      <point x="352" y="650"/>
      <point x="303" y="720"/>
      <point x="207" y="720" type="curve" smooth="yes"/>
      <point x="99" y="720"/>
      <point x="40" y="656"/>
      <point x="40" y="552" type="curve" smooth="yes"/>
      <point x="40" y="479"/>
      <point x="87" y="411"/>
      <point x="110" y="383" type="curve"/>
      <point x="110" y="376" type="line"/>
      <point x="50" y="308"/>
      <point x="16" y="264"/>
      <point x="16" y="166" type="curve" smooth="yes"/>
      <point x="16" y="46"/>
      <point x="88" y="-15"/>
    </contour>
    <contour>
      <point x="173" y="425" type="line"/>
      <point x="147" y="461"/>
      <point x="117" y="491"/>
      <point x="117" y="552" type="curve" smooth="yes"/>
      <point x="117" y="603"/>
      <point x="149" y="638"/>
      <point x="207" y="638" type="curve" smooth="yes"/>
      <point x="252" y="638"/>
      <point x="280" y="603"/>
      <point x="280" y="552" type="curve" smooth="yes"/>
      <point x="280" y="511"/>
      <point x="235" y="476"/>
      <point x="181" y="425" type="curve"/>
    </contour>
    <contour>
      <point x="194" y="57" type="curve" smooth="yes"/>
      <point x="139" y="57"/>
      <point x="98" y="99"/>
      <point x="98" y="173" type="curve" smooth="yes"/>
      <point x="98" y="237"/>
      <point x="119" y="290"/>
      <point x="149" y="316" type="curve"/>
      <point x="157" y="316" type="line"/>
      <point x="300" y="149" type="line"/>
      <point x="300" y="141" type="line"/>
      <point x="276" y="94"/>
      <point x="230" y="57"/>
    </contour>
  </outline>
</glyph>
<glyph name="parenright" format="2">
  <advance width="512"/>
  <unicode hex="0029"/>
  <outline>
    <contour>
      <point x="152" y="-208" type="curve"/>
      <point x="128" y="-208" type="line"/>
      <point x="120" y="-200" type="line"/>
      <point x="120" y="-136" type="line"/>
      <point x="128" y="-128" type="line"/>
      <point x="152" y="-128" type="line"/>
      <point x="264" y="-128"/>
      <point x="320" y="-64"/>
      <point x="320" y="65" type="curve" smooth="yes"/>
      <point x="320" y="495" type="line" smooth="yes"/>
      <point x="320" y="624"/>
      <point x="264" y="688"/>
      <point x="152" y="688" type="curve"/>
      <point x="128" y="688" type="line"/>
      <point x="120" y="696" type="line"/>
      <point x="120" y="760" type="line"/>
      <point x="128" y="768" type="line"/>
      <point x="152" y="768" type="line"/>
      <point x="312" y="768"/>
      <point x="392" y="672"/>
      <point x="392" y="519" type="curve" smooth="yes"/>
      <point x="392" y="41" type="line" smooth="yes"/>
      <point x="392" y="-112"/>
      <point x="312" y="-208"/>
    </contour>
  </outline>
</glyph>
<glyph name="period" format="2">
  <advance width="512"/>
  <unicode hex="002E"/>
  <outline>
    <contour>
      <point x="256" y="-16" type="curve" smooth="yes"/>
      <point x="310" y="-16"/>
      <point x="352" y="26"/>
      <point x="352" y="81" type="curve" smooth="yes"/>
      <point x="352" y="135"/>
      <point x="310" y="176"/>
      <point x="256" y="176" type="curve" smooth="yes"/>
      <point x="202" y="176"/>
      <point x="160" y="135"/>
      <point x="160" y="81" type="curve" smooth="yes"/>
      <point x="160" y="26"/>
      <point x="202" y="-16"/>
    </contour>
  </outline>
</glyph>
<glyph name="slash" format="2">
  <advance width="512"/>
  <unicode hex="002F"/>
  <outline>
    <contour>
      <point x="88" y="-208" type="line"/>
      <point x="143" y="-208" type="line"/>
      <point x="151" y="-200" type="line"/>
      <point x="432" y="752" type="line"/>
      <point x="432" y="760" type="line"/>
      <point x="424" y="768" type="line"/>
      <point x="369" y="768" type="line"/>
      <point x="361" y="760" type="line"/>
      <point x="80" y="-192" type="line"/>
      <point x="80" y="-200" type="line"/>
    </contour>
  </outline>
</glyph>
<glyph name="three" format="2">
  <advance width="512"/>
  <unicode hex="0033"/>
  <outline>
    <contour>
      <point x="255" y="-16" type="curve" smooth="yes"/>
      <point x="364" y="-16"/>
      <point x="432" y="37"/>
      <point x="432" y="156" type="curve" smooth="yes"/>
      <point x="432" y="267" type="line" smooth="yes"/>
      <point x="432" y="322"/>
      <point x="391" y="351"/>
      <point x="361" y="358" type="curve"/>
      <point x="361" y="368" type="line"/>
      <point x="393" y="375"/>
      <point x="432" y="402"/>
      <point x="432" y="454" type="curve" smooth="yes"/>
      <point x="432" y="548" type="line" smooth="yes"/>
      <point x="432" y="667"/>
      <point x="364" y="720"/>
      <point x="255" y="720" type="curve" smooth="yes"/>
      <point x="138" y="720"/>
      <point x="80" y="655"/>
      <point x="80" y="552" type="curve" smooth="yes"/>
      <point x="80" y="520" type="line"/>
      <point x="88" y="512" type="line"/>
      <point x="144" y="512" type="line"/>
      <point x="152" y="520" type="line"/>
      <point x="152" y="552" type="line" smooth="yes"/>
      <point x="152" y="615"/>
      <point x="195" y="640"/>
      <point x="256" y="640" type="curve" smooth="yes"/>
      <point x="316" y="640"/>
      <point x="360" y="613"/>
      <point x="360" y="536" type="curve" smooth="yes"/>
      <point x="360" y="467" type="line" smooth="yes"/>
      <point x="360" y="424"/>
      <point x="340" y="402"/>
      <point x="281" y="402" type="curve" smooth="yes"/>
      <point x="209" y="402" type="line"/>
      <point x="201" y="394" type="line"/>
      <point x="201" y="330" type="line"/>
      <point x="209" y="322" type="line"/>
      <point x="281" y="322" type="line" smooth="yes"/>
      <point x="340" y="322"/>
      <point x="360" y="296"/>
      <point x="360" y="257" type="curve" smooth="yes"/>
      <point x="360" y="168" type="line" smooth="yes"/>
      <point x="360" y="91"/>
      <point x="316" y="64"/>
      <point x="256" y="64" type="curve" smooth="yes"/>
      <point x="195" y="64"/>
      <point x="152" y="89"/>
      <point x="152" y="152" type="curve" smooth="yes"/>
      <point x="152" y="184" type="line"/>
      <point x="144" y="192" type="line"/>
      <point x="88" y="192" type="line"/>
      <point x="80" y="184" type="line"/>
      <point x="80" y="152" type="line" smooth="yes"/>
      <point x="80" y="49"/>
      <point x="138" y="-16"/>
    </contour>
  </outline>
</glyph>
<glyph name="six" format="2">
  <advance width="512"/>
  <unicode hex="0036"/>
  <outline>
    <contour>
      <point x="256" y="-16" type="curve" smooth="yes"/>
      <point x="393" y="-16"/>
      <point x="440" y="53"/>
      <point x="440" y="224" type="curve" smooth="yes"/>
      <point x="440" y="278" type="line" smooth="yes"/>
      <point x="440" y="377"/>
      <point x="406" y="458"/>
      <point x="278" y="458" type="curve" smooth="yes"/>
      <point x="231" y="458"/>
      <point x="173" y="434"/>
      <point x="154" y="405" type="curve"/>
      <point x="142" y="405" type="line"/>
      <point x="142" y="435" type="line" smooth="yes"/>
      <point x="142" y="545"/>
      <point x="173" y="640"/>
      <point x="256" y="640" type="curve" smooth="yes"/>
      <point x="325" y="640"/>
      <point x="351" y="602"/>
      <point x="351" y="536" type="curve" smooth="yes"/>
      <point x="351" y="520" type="line"/>
      <point x="359" y="512" type="line"/>
      <point x="415" y="512" type="line"/>
      <point x="423" y="520" type="line"/>
      <point x="423" y="544" type="line" smooth="yes"/>
      <point x="423" y="653"/>
      <point x="379" y="720"/>
      <point x="256" y="720" type="curve" smooth="yes"/>
      <point x="117" y="720"/>
      <point x="72" y="590"/>
      <point x="72" y="435" type="curve" smooth="yes"/>
      <point x="72" y="244" type="line" smooth="yes"/>
      <point x="72" y="49"/>
      <point x="119" y="-16"/>
    </contour>
    <contour>
      <point x="256" y="64" type="curve" smooth="yes"/>
      <point x="176" y="64"/>
      <point x="142" y="116"/>
      <point x="142" y="237" type="curve" smooth="yes"/>
      <point x="142" y="266" type="line" smooth="yes"/>
      <point x="142" y="325"/>
      <point x="183" y="374"/>
      <point x="256" y="374" type="curve" smooth="yes"/>
      <point x="336" y="374"/>
      <point x="379" y="325"/>
      <point x="379" y="266" type="curve" smooth="yes"/>
      <point x="379" y="205" type="line" smooth="yes"/>
      <point x="379" y="84"/>
      <point x="336" y="64"/>
    </contour>
  </outline>
</glyph>
<glyph name="seven" format="2">
  <advance width="512"/>
  <unicode hex="0037"/>
  <outline>
    <contour>
      <point x="181" y="0" type="line"/>
      <point x="237" y="0" type="line"/>
      <point x="245" y="8" type="line"/>
      <point x="245" y="43" type="line" smooth="yes"/>
      <point x="245" y="311"/>
      <point x="322" y="479"/>
      <point x="432" y="624" type="curve"/>
      <point x="432" y="704" type="line"/>
      <point x="420" y="704" type="line"/>
      <point x="80" y="704" type="line"/>
      <point x="80" y="695" type="line"/>
      <point x="80" y="636" type="line"/>
      <point x="80" y="624" type="line"/>
      <point x="357" y="624" type="line"/>
      <point x="357" y="616" type="line"/>
      <point x="247" y="456"/>
      <point x="173" y="313"/>
      <point x="173" y="43" type="curve" smooth="yes"/>
      <point x="173" y="8" type="line"/>
    </contour>
  </outline>
</glyph>
<glyph name="eight" format="2">
  <advance width="512"/>
  <unicode hex="0038"/>
  <outline>
    <contour>
      <point x="258" y="-16" type="curve" smooth="yes"/>
      <point x="402" y="-16"/>
      <point x="440" y="48.333"/>
      <point x="440" y="135" type="curve" smooth="yes"/>
      <point x="440" y="219" type="line" smooth="yes"/>
      <point x="440" y="319"/>
      <point x="421" y="357.667"/>
      <point x="345" y="367" type="curve"/>
      <point x="345" y="396" type="line"/>
      <point x="405" y="402.667"/>
      <point x="425" y="428"/>
      <point x="425" y="516" type="curve" smooth="yes"/>
      <point x="425" y="562" type="line" smooth="yes"/>
      <point x="425" y="651.333"/>
      <point x="392.667" y="720"/>
      <point x="258" y="720" type="curve" smooth="yes"/>
      <point x="123.333" y="720"/>
      <point x="87" y="651.333"/>
      <point x="87" y="562" type="curve" smooth="yes"/>
      <point x="87" y="516" type="line" smooth="yes"/>
      <point x="87" y="428"/>
      <point x="110" y="402.667"/>
      <point x="170" y="396" type="curve"/>
      <point x="170" y="367" type="line"/>
      <point x="94" y="357.667"/>
      <point x="72" y="320"/>
      <point x="72" y="219" type="curve" smooth="yes"/>
      <point x="72" y="135" type="line" smooth="yes"/>
      <point x="72" y="49"/>
      <point x="112.667" y="-16"/>
    </contour>
    <contour>
      <point x="258" y="421" type="curve" smooth="yes"/>
      <point x="182" y="421"/>
      <point x="178" y="452.333"/>
      <point x="178" y="511" type="curve" smooth="yes"/>
      <point x="178" y="553" type="line" smooth="yes"/>
      <point x="178" y="601"/>
      <point x="182" y="642"/>
      <point x="258" y="642" type="curve" smooth="yes"/>
      <point x="334" y="642"/>
      <point x="334" y="601"/>
      <point x="334" y="553" type="curve" smooth="yes"/>
      <point x="334" y="511" type="line" smooth="yes"/>
      <point x="334" y="452.333"/>
      <point x="334" y="421"/>
    </contour>
    <contour>
      <point x="258" y="62" type="curve" smooth="yes"/>
      <point x="170" y="62"/>
      <point x="163" y="100"/>
      <point x="163" y="144" type="curve" smooth="yes"/>
      <point x="163" y="224" type="line" smooth="yes"/>
      <point x="163" y="301.333"/>
      <point x="170" y="339"/>
      <point x="258" y="339" type="curve" smooth="yes"/>
      <point x="344.667" y="339"/>
      <point x="349" y="301.333"/>
      <point x="349" y="224" type="curve" smooth="yes"/>
      <point x="349" y="144" type="line" smooth="yes"/>
      <point x="349" y="100"/>
      <point x="344.667" y="62"/>
    </contour>
  </outline>
</glyph>
<glyph name="less" format="2">
  <advance width="512"/>
  <unicode hex="003C"/>
  <outline>
    <contour>
      <point x="458" y="7" type="line"/>
      <point x="458" y="94" type="line"/>
      <point x="139" y="310" type="line"/>
      <point x="458" y="526" type="line"/>
      <point x="458" y="613" type="line"/>
      <point x="79" y="355" type="line"/>
      <point x="79" y="265" type="line"/>
    </contour>
  </outline>
</glyph>
<glyph name="A" format="2">
  <advance width="512"/>
  <unicode hex="0041"/>
  <anchor x="256" y="0" name="bottom"/>
  <anchor x="464" y="0" name="ogonek"/>
  <anchor x="256" y="704" name="top"/>
  <outline>
    <contour>
      <point x="208" y="286" type="line"/>
      <point x="200" y="294" type="line"/>
      <point x="248" y="552" type="line"/>
      <point x="253" y="560" type="line"/>
      <point x="259" y="560" type="line"/>
      <point x="264" y="552" type="line"/>
      <point x="312" y="294" type="line"/>
      <point x="304" y="286" type="line"/>
    </contour>
    <contour>
      <point x="40" y="0" type="line"/>
      <point x="144" y="0" type="line"/>
      <point x="152" y="8" type="line"/>
      <point x="176" y="134" type="line"/>
      <point x="184" y="142" type="line"/>
      <point x="328" y="142" type="line"/>
      <point x="336" y="134" type="line"/>
      <point x="360" y="8" type="line"/>
      <point x="368" y="0" type="line"/>
      <point x="472" y="0" type="line"/>
      <point x="480" y="8" type="line"/>
      <point x="344" y="696" type="line"/>
      <point x="336" y="704" type="line"/>
      <point x="176" y="704" type="line"/>
      <point x="168" y="696" type="line"/>
      <point x="32" y="8" type="line"/>
    </contour>
  </outline>
</glyph>
<glyph name="B" format="2">
  <advance width="512"/>
  <unicode hex="0042"/>
  <outline>
    <contour>
      <point x="160" y="407" type="line"/>
      <point x="152" y="415" type="line"/>
      <point x="152" y="616" type="line"/>
      <point x="160" y="624" type="line"/>
      <point x="232" y="624" type="line" smooth="yes"/>
      <point x="312" y="624"/>
      <point x="344" y="592"/>
      <point x="344" y="543" type="curve" smooth="yes"/>
      <point x="344" y="497" type="line" smooth="yes"/>
      <point x="344" y="440"/>
      <point x="328" y="407"/>
      <point x="248" y="407" type="curve" smooth="yes"/>
    </contour>
    <contour>
      <point x="88" y="0" type="line"/>
      <point x="256" y="0" type="line" smooth="yes"/>
      <point x="400" y="0"/>
      <point x="440" y="48"/>
      <point x="440" y="129" type="curve" smooth="yes"/>
      <point x="440" y="255" type="line" smooth="yes"/>
      <point x="440" y="312"/>
      <point x="411" y="361"/>
      <point x="353" y="369" type="curve"/>
      <point x="353" y="382" type="line"/>
      <point x="392" y="390"/>
      <point x="416" y="419"/>
      <point x="416" y="481" type="curve" smooth="yes"/>
      <point x="416" y="559" type="line" smooth="yes"/>
      <point x="416" y="640"/>
      <point x="366" y="704"/>
      <point x="238" y="704" type="curve" smooth="yes"/>
      <point x="88" y="704" type="line"/>
      <point x="80" y="696" type="line"/>
      <point x="80" y="8" type="line"/>
    </contour>
    <contour>
      <point x="160" y="80" type="line"/>
      <point x="152" y="88" type="line"/>
      <point x="152" y="327" type="line"/>
      <point x="160" y="335" type="line"/>
      <point x="256" y="335" type="line" smooth="yes"/>
      <point x="336" y="335"/>
      <point x="368" y="289"/>
      <point x="368" y="239" type="curve" smooth="yes"/>
      <point x="368" y="145" type="line" smooth="yes"/>
      <point x="368" y="102"/>
      <point x="336" y="80"/>
      <point x="256" y="80" type="curve" smooth="yes"/>
    </contour>
  </outline>
</glyph>
<glyph name="C" format="2">
  <advance width="512"/>
  <unicode hex="0043"/>
  <outline>
    <contour>
      <point x="256" y="-16" type="curve" smooth="yes"/>
      <point x="392" y="-16"/>
      <point x="440" y="72"/>
      <point x="440" y="177" type="curve" smooth="yes"/>
      <point x="440" y="249" type="line"/>
      <point x="432" y="257" type="line"/>
      <point x="320" y="257" type="line"/>
      <point x="312" y="249" type="line"/>
      <point x="312" y="217" type="line" smooth="yes"/>
      <point x="312" y="160"/>
      <point x="302" y="128"/>
      <point x="256" y="128" type="curve" smooth="yes"/>
      <point x="212" y="128"/>
      <point x="200" y="176"/>
      <point x="200" y="249" type="curve" smooth="yes"/>
      <point x="200" y="455" type="line" smooth="yes"/>
      <point x="200" y="528"/>
      <point x="212" y="576"/>
      <point x="256" y="576" type="curve" smooth="yes"/>
      <point x="302" y="576"/>
      <point x="312" y="544"/>
      <point x="312" y="495" type="curve" smooth="yes"/>
      <point x="312" y="463" type="line"/>
      <point x="320" y="455" type="line"/>
      <point x="432" y="455" type="line"/>
      <point x="440" y="463" type="line"/>
      <point x="440" y="527" type="line" smooth="yes"/>
      <point x="440" y="632"/>
      <point x="392" y="720"/>
      <point x="256" y="720" type="curve" smooth="yes"/>
      <point x="136" y="720"/>
      <point x="72" y="648"/>
      <point x="72" y="535" type="curve" smooth="yes"/>
      <point x="72" y="169" type="line" smooth="yes"/>
      <point x="72" y="56"/>
      <point x="136" y="-16"/>
    </contour>
  </outline>
</glyph>
<glyph name="D" format="2">
  <advance width="512"/>
  <unicode hex="0044"/>
  <anchor x="235" y="704" name="top"/>
  <outline>
    <contour>
      <point x="80" y="0" type="line"/>
      <point x="256" y="0" type="line" smooth="yes"/>
      <point x="384" y="0"/>
      <point x="440" y="80"/>
      <point x="440" y="193" type="curve" smooth="yes"/>
      <point x="440" y="511" type="line" smooth="yes"/>
      <point x="440" y="624"/>
      <point x="384" y="704"/>
      <point x="256" y="704" type="curve" smooth="yes"/>
      <point x="80" y="704" type="line"/>
      <point x="72" y="696" type="line"/>
      <point x="72" y="8" type="line"/>
    </contour>
    <contour>
      <point x="208" y="144" type="line"/>
      <point x="200" y="152" type="line"/>
      <point x="200" y="552" type="line"/>
      <point x="208" y="560" type="line"/>
      <point x="256" y="560" type="line" smooth="yes"/>
      <point x="296" y="560"/>
      <point x="312" y="538"/>
      <point x="312" y="431" type="curve" smooth="yes"/>
      <point x="312" y="273" type="line" smooth="yes"/>
      <point x="312" y="168"/>
      <point x="296" y="144"/>
      <point x="256" y="144" type="curve" smooth="yes"/>
    </contour>
  </outline>
</glyph>
<glyph name="E" format="2">
  <advance width="512"/>
  <unicode hex="0045"/>
  <anchor x="267" y="704" name="top"/>
  <outline>
    <contour>
      <point x="80" y="0" type="line"/>
      <point x="432" y="0" type="line"/>
      <point x="440" y="8" type="line"/>
      <point x="440" y="72" type="line"/>
      <point x="432" y="80" type="line"/>
      <point x="152" y="80" type="line"/>
      <point x="144" y="88" type="line"/>
      <point x="144" y="312" type="line"/>
      <point x="368" y="312" type="line"/>
      <point x="376" y="320" type="line"/>
      <point x="376" y="384" type="line"/>
      <point x="368" y="392" type="line"/>
      <point x="152" y="392" type="line"/>
      <point x="144" y="400" type="line"/>
      <point x="144" y="616" type="line"/>
      <point x="152" y="624" type="line"/>
      <point x="432" y="624" type="line"/>
      <point x="440" y="632" type="line"/>
      <point x="440" y="696" type="line"/>
      <point x="432" y="704" type="line"/>
      <point x="80" y="704" type="line"/>
      <point x="72" y="696" type="line"/>
      <point x="72" y="8" type="line"/>
    </contour>
  </outline>
</glyph>
<glyph name="F" format="2">
  <advance width="512"/>
  <unicode hex="0046"/>
  <outline>
    <contour>
      <point x="80" y="0" type="line"/>
      <point x="192" y="0" type="line"/>
      <point x="200" y="8" type="line"/>
      <point x="200" y="304" type="line"/>
      <point x="208" y="312" type="line"/>
      <point x="376" y="312" type="line"/>
      <point x="384" y="320" type="line"/>
      <point x="384" y="448" type="line"/>
      <point x="376" y="456" type="line"/>
      <point x="208" y="456" type="line"/>
      <point x="200" y="464" type="line"/>
      <point x="200" y="552" type="line"/>
      <point x="208" y="560" type="line"/>
      <point x="440" y="560" type="line"/>
      <point x="448" y="568" type="line"/>
      <point x="448" y="696" type="line"/>
      <point x="440" y="704" type="line"/>
      <point x="80" y="704" type="line"/>
      <point x="72" y="696" type="line"/>
      <point x="72" y="8" type="line"/>
    </contour>
  </outline>
</glyph>
<glyph name="G" format="2">
  <advance width="512"/>
  <unicode hex="0047"/>
  <anchor x="255" y="704" name="top"/>
  <outline>
    <contour>
      <point x="240" y="-16" type="curve" smooth="yes"/>
      <point x="286" y="-16"/>
      <point x="337" y="15"/>
      <point x="360" y="50" type="curve"/>
      <point x="368" y="50" type="line"/>
      <point x="368" y="8" type="line"/>
      <point x="376" y="0" type="line"/>
      <point x="432" y="0" type="line"/>
      <point x="440" y="8" type="line"/>
      <point x="440" y="344" type="line"/>
      <point x="432" y="352" type="line"/>
      <point x="264" y="352" type="line"/>
      <point x="256" y="344" type="line"/>
      <point x="256" y="280" type="line"/>
      <point x="264" y="272" type="line"/>
      <point x="368" y="272" type="line"/>
      <point x="368" y="185" type="line" smooth="yes"/>
      <point x="368" y="112"/>
      <point x="336" y="64"/>
      <point x="256" y="64" type="curve" smooth="yes"/>
      <point x="184" y="64"/>
      <point x="144" y="112"/>
      <point x="144" y="185" type="curve" smooth="yes"/>
      <point x="144" y="519" type="line" smooth="yes"/>
      <point x="144" y="592"/>
      <point x="184" y="640"/>
      <point x="256" y="640" type="curve" smooth="yes"/>
      <point x="328" y="640"/>
      <point x="368" y="592"/>
      <point x="368" y="519" type="curve" smooth="yes"/>
      <point x="368" y="487" type="line"/>
      <point x="376" y="479" type="line"/>
      <point x="432" y="479" type="line"/>
      <point x="440" y="487" type="line"/>
      <point x="440" y="527" type="line" smooth="yes"/>
      <point x="440" y="632"/>
      <point x="392" y="720"/>
      <point x="256" y="720" type="curve" smooth="yes"/>
      <point x="136" y="720"/>
      <point x="72" y="648"/>
      <point x="72" y="535" type="curve" smooth="yes"/>
      <point x="72" y="169" type="line" smooth="yes"/>
      <point x="72" y="56"/>
      <point x="138" y="-16"/>
    </contour>
  </outline>
</glyph>
<glyph name="H" format="2">
  <advance width="512"/>
  <unicode hex="0048"/>
  <outline>
    <contour>
      <point x="80" y="0" type="line"/>
      <point x="192" y="0" type="line"/>
      <point x="200" y="8" type="line"/>
      <point x="200" y="279" type="line"/>
      <point x="208" y="287" type="line"/>
      <point x="304" y="287" type="line"/>
      <point x="312" y="279" type="line"/>
      <point x="312" y="8" type="line"/>
      <point x="320" y="0" type="line"/>
      <point x="432" y="0" type="line"/>
      <point x="440" y="8" type="line"/>
      <point x="440" y="696" type="line"/>
      <point x="432" y="704" type="line"/>
      <point x="320" y="704" type="line"/>
      <point x="312" y="696" type="line"/>
      <point x="312" y="439" type="line"/>
      <point x="304" y="431" type="line"/>
      <point x="208" y="431" type="line"/>
      <point x="200" y="439" type="line"/>
      <point x="200" y="696" type="line"/>
      <point x="192" y="704" type="line"/>
      <point x="80" y="704" type="line"/>
      <point x="72" y="696" type="line"/>
      <point x="72" y="8" type="line"/>
    </contour>
  </outline>
</glyph>
<glyph name="K" format="2">
  <advance width="512"/>
  <unicode hex="004B"/>
  <outline>
    <contour>
      <point x="80" y="0" type="line"/>
      <point x="136" y="0" type="line"/>
      <point x="144" y="8" type="line"/>
      <point x="144" y="324" type="line"/>
      <point x="152" y="332" type="line"/>
      <point x="181" y="332" type="line"/>
      <point x="393" y="8" type="line"/>
      <point x="401" y="0" type="line"/>
      <point x="464" y="0" type="line"/>
      <point x="472" y="8" type="line"/>
      <point x="472" y="16" type="line"/>
      <point x="249" y="363" type="line"/>
      <point x="249" y="379" type="line"/>
      <point x="458" y="688" type="line"/>
      <point x="458" y="696" type="line"/>
      <point x="450" y="704" type="line"/>
      <point x="383" y="704" type="line"/>
      <point x="375" y="696" type="line"/>
      <point x="186" y="412" type="line"/>
      <point x="152" y="412" type="line"/>
      <point x="144" y="420" type="line"/>
      <point x="144" y="696" type="line"/>
      <point x="136" y="704" type="line"/>
      <point x="80" y="704" type="line"/>
      <point x="72" y="696" type="line"/>
      <point x="72" y="8" type="line"/>
    </contour>
  </outline>
</glyph>
<glyph name="M" format="2">
  <advance width="512"/>
  <unicode hex="004D"/>
  <outline>
    <contour>
      <point x="80" y="0" type="line"/>
      <point x="136" y="0" type="line"/>
      <point x="144" y="8" type="line"/>
      <point x="144" y="624" type="line"/>
      <point x="168" y="624" type="line"/>
      <point x="193" y="279" type="line"/>
      <point x="201" y="271" type="line"/>
      <point x="310" y="271" type="line"/>
      <point x="318" y="279" type="line"/>
      <point x="344" y="624" type="line"/>
      <point x="368" y="624" type="line"/>
      <point x="368" y="8" type="line"/>
      <point x="376" y="0" type="line"/>
      <point x="432" y="0" type="line"/>
      <point x="440" y="8" type="line"/>
      <point x="440" y="696" type="line"/>
      <point x="432" y="704" type="line"/>
      <point x="304" y="704" type="line"/>
      <point x="296" y="696" type="line"/>
      <point x="272" y="351" type="line"/>
      <point x="240" y="351" type="line"/>
      <point x="216" y="696" type="line"/>
      <point x="208" y="704" type="line"/>
      <point x="80" y="704" type="line"/>
      <point x="72" y="696" type="line"/>
      <point x="72" y="8" type="line"/>
    </contour>
  </outline>
</glyph>
<glyph name="N" format="2">
  <advance width="512"/>
  <unicode hex="004E"/>
  <anchor x="260" y="704" name="top"/>
  <outline>
    <contour>
      <point x="80" y="0" type="line"/>
      <point x="136" y="0" type="line"/>
      <point x="144" y="8" type="line"/>
      <point x="144" y="624" type="line"/>
      <point x="160" y="624" type="line"/>
      <point x="312" y="8" type="line"/>
      <point x="320" y="0" type="line"/>
      <point x="432" y="0" type="line"/>
      <point x="440" y="8" type="line"/>
      <point x="440" y="696" type="line"/>
      <point x="432" y="704" type="line"/>
      <point x="376" y="704" type="line"/>
      <point x="368" y="696" type="line"/>
      <point x="368" y="80" type="line"/>
      <point x="352" y="80" type="line"/>
      <point x="208" y="696" type="line"/>
      <point x="200" y="704" type="line"/>
      <point x="80" y="704" type="line"/>
      <point x="72" y="696" type="line"/>
      <point x="72" y="8" type="line"/>
    </contour>
  </outline>
</glyph>
<glyph name="O" format="2">
  <advance width="512"/>
  <unicode hex="004F"/>
  <anchor x="256" y="704" name="top"/>
  <outline>
    <contour>
      <point x="256" y="-16" type="curve" smooth="yes"/>
      <point x="399" y="-16"/>
      <point x="477" y="66"/>
      <point x="477" y="237" type="curve" smooth="yes"/>
      <point x="477" y="463" type="line" smooth="yes"/>
      <point x="477" y="636"/>
      <point x="399" y="720"/>
      <point x="256" y="720" type="curve" smooth="yes"/>
      <point x="115" y="720"/>
      <point x="35" y="636"/>
      <point x="35" y="463" type="curve" smooth="yes"/>
      <point x="35" y="237" type="line" smooth="yes"/>
      <point x="35" y="66"/>
      <point x="113" y="-16"/>
    </contour>
    <contour>
      <point x="256" y="122" type="curve" smooth="yes"/>
      <point x="185" y="122"/>
      <point x="171" y="179"/>
      <point x="171" y="259" type="curve" smooth="yes"/>
      <point x="171" y="442" type="line" smooth="yes"/>
      <point x="171" y="519"/>
      <point x="182" y="582"/>
      <point x="256" y="582" type="curve" smooth="yes"/>
      <point x="329" y="582"/>
      <point x="341" y="525"/>
      <point x="341" y="442" type="curve" smooth="yes"/>
      <point x="341" y="259" type="line" smooth="yes"/>
      <point x="341" y="179"/>
      <point x="330" y="122"/>
    </contour>
  </outline>
</glyph>
<glyph name="P" format="2">
  <advance width="512"/>
  <unicode hex="0050"/>
  <outline>
    <contour>
      <point x="152" y="374" type="line"/>
      <point x="152" y="616" type="line"/>
      <point x="160" y="624" type="line"/>
      <point x="256" y="624" type="line" smooth="yes"/>
      <point x="336" y="624"/>
      <point x="376" y="567"/>
      <point x="376" y="495" type="curve" smooth="yes"/>
      <point x="376" y="423"/>
      <point x="336" y="366"/>
      <point x="256" y="366" type="curve" smooth="yes"/>
      <point x="160" y="366" type="line"/>
    </contour>
    <contour>
      <point x="88" y="0" type="line"/>
      <point x="144" y="0" type="line"/>
      <point x="152" y="8" type="line"/>
      <point x="152" y="294" type="line"/>
      <point x="256" y="294" type="line" smooth="yes"/>
      <point x="384" y="294"/>
      <point x="448" y="366"/>
      <point x="448" y="495" type="curve" smooth="yes"/>
      <point x="448" y="624"/>
      <point x="384" y="704"/>
      <point x="256" y="704" type="curve" smooth="yes"/>
      <point x="88" y="704" type="line"/>
      <point x="80" y="696" type="line"/>
      <point x="80" y="8" type="line"/>
    </contour>
  </outline>
</glyph>
<glyph name="Q" format="2">
  <advance width="512"/>
  <unicode hex="0051"/>
  <outline>
    <contour>
      <point x="256" y="64" type="curve" smooth="yes"/>
      <point x="176" y="64"/>
      <point x="144" y="120"/>
      <point x="144" y="193" type="curve" smooth="yes"/>
      <point x="144" y="511" type="line" smooth="yes"/>
      <point x="144" y="584"/>
      <point x="176" y="640"/>
      <point x="256" y="640" type="curve" smooth="yes"/>
      <point x="336" y="640"/>
      <point x="368" y="584"/>
      <point x="368" y="511" type="curve" smooth="yes"/>
      <point x="368" y="193" type="line" smooth="yes"/>
      <point x="368" y="120"/>
      <point x="336" y="64"/>
    </contour>
    <contour>
      <point x="290" y="-208" type="curve" smooth="yes"/>
      <point x="370" y="-208" type="line"/>
      <point x="378" y="-200" type="line"/>
      <point x="378" y="-136" type="line"/>
      <point x="370" y="-128" type="line"/>
      <point x="314" y="-128" type="line" smooth="yes"/>
      <point x="298" y="-128"/>
      <point x="290" y="-120"/>
      <point x="290" y="-104" type="curve" smooth="yes"/>
      <point x="290" y="-14" type="line"/>
      <point x="394" y="-1"/>
      <point x="440" y="75"/>
      <point x="440" y="177" type="curve" smooth="yes"/>
      <point x="440" y="527" type="line" smooth="yes"/>
      <point x="440" y="640"/>
      <point x="384" y="720"/>
      <point x="256" y="720" type="curve" smooth="yes"/>
      <point x="128" y="720"/>
      <point x="72" y="640"/>
      <point x="72" y="527" type="curve" smooth="yes"/>
      <point x="72" y="177" type="line" smooth="yes"/>
      <point x="72" y="76"/>
      <point x="117" y="1"/>
      <point x="218" y="-13" type="curve"/>
      <point x="218" y="-136" type="line" smooth="yes"/>
      <point x="218" y="-184"/>
      <point x="242" y="-208"/>
    </contour>
  </outline>
</glyph>
<glyph name="R" format="2">
  <advance width="512"/>
  <unicode hex="0052"/>
  <anchor x="248" y="704" name="top"/>
  <outline>
    <contour>
      <point x="160" y="376" type="line"/>
      <point x="152" y="384" type="line"/>
      <point x="152" y="616" type="line"/>
      <point x="160" y="624" type="line"/>
      <point x="280" y="624" type="line" smooth="yes"/>
      <point x="352" y="624"/>
      <point x="368" y="592"/>
      <point x="368" y="543" type="curve" smooth="yes"/>
      <point x="368" y="465" type="line" smooth="yes"/>
      <point x="368" y="408"/>
      <point x="352" y="376"/>
      <point x="280" y="376" type="curve" smooth="yes"/>
    </contour>
    <contour>
      <point x="88" y="0" type="line"/>
      <point x="144" y="0" type="line"/>
      <point x="152" y="8" type="line"/>
      <point x="152" y="296" type="line"/>
      <point x="160" y="304" type="line"/>
      <point x="256" y="304" type="line" smooth="yes"/>
      <point x="336" y="304"/>
      <point x="368" y="257"/>
      <point x="368" y="207" type="curve" smooth="yes"/>
      <point x="368" y="7" type="line"/>
      <point x="376" y="0" type="line"/>
      <point x="432" y="0" type="line"/>
      <point x="440" y="8" type="line"/>
      <point x="440" y="223" type="line" smooth="yes"/>
      <point x="440" y="280"/>
      <point x="419" y="324"/>
      <point x="353" y="332" type="curve"/>
      <point x="353" y="345" type="line"/>
      <point x="400" y="353"/>
      <point x="440" y="387"/>
      <point x="440" y="449" type="curve" smooth="yes"/>
      <point x="440" y="559" type="line" smooth="yes"/>
      <point x="440" y="648"/>
      <point x="400" y="704"/>
      <point x="280" y="704" type="curve" smooth="yes"/>
      <point x="88" y="704" type="line"/>
      <point x="80" y="696" type="line"/>
      <point x="80" y="8" type="line"/>
    </contour>
  </outline>
</glyph>
<glyph name="T" format="2">
  <advance width="512"/>
  <unicode hex="0054"/>
  <anchor x="258" y="704" name="top"/>
  <outline>
    <contour>
      <point x="200" y="0" type="line"/>
      <point x="312" y="0" type="line"/>
      <point x="320" y="8" type="line"/>
      <point x="320" y="552" type="line"/>
      <point x="328" y="560" type="line"/>
      <point x="448" y="560" type="line"/>
      <point x="456" y="568" type="line"/>
      <point x="456" y="696" type="line"/>
      <point x="448" y="704" type="line"/>
      <point x="64" y="704" type="line"/>
      <point x="56" y="696" type="line"/>
      <point x="56" y="568" type="line"/>
      <point x="64" y="560" type="line"/>
      <point x="184" y="560" type="line"/>
      <point x="192" y="552" type="line"/>
      <point x="192" y="8" type="line"/>
    </contour>
  </outline>
</glyph>
<glyph name="U" format="2">
  <advance width="512"/>
  <unicode hex="0055"/>
  <anchor x="255" y="704" name="top"/>
  <outline>
    <contour>
      <point x="256" y="-16" type="curve" smooth="yes"/>
      <point x="384" y="-16"/>
      <point x="440" y="64"/>
      <point x="440" y="177" type="curve" smooth="yes"/>
      <point x="440" y="696" type="line"/>
      <point x="432" y="704" type="line"/>
      <point x="376" y="704" type="line"/>
      <point x="368" y="696" type="line"/>
      <point x="368" y="193" type="line" smooth="yes"/>
      <point x="368" y="112"/>
      <point x="336" y="64"/>
      <point x="256" y="64" type="curve" smooth="yes"/>
      <point x="176" y="64"/>
      <point x="144" y="112"/>
      <point x="144" y="193" type="curve" smooth="yes"/>
      <point x="144" y="696" type="line"/>
      <point x="136" y="704" type="line"/>
      <point x="80" y="704" type="line"/>
      <point x="72" y="696" type="line"/>
      <point x="72" y="177" type="line" smooth="yes"/>
      <point x="72" y="64"/>
      <point x="128" y="-16"/>
    </contour>
  </outline>
</glyph>
<glyph name="W" format="2">
  <advance width="512"/>
  <unicode hex="0057"/>
  <anchor x="257" y="704" name="top"/>
  <outline>
    <contour>
      <point x="83" y="0" type="line"/>
      <point x="179" y="0" type="line"/>
      <point x="187" y="8" type="line"/>
      <point x="248" y="374" type="line"/>
      <point x="264" y="374" type="line"/>
      <point x="325" y="8" type="line"/>
      <point x="333" y="0" type="line"/>
      <point x="429" y="0" type="line"/>
      <point x="437" y="8" type="line"/>
      <point x="495" y="696" type="line"/>
      <point x="487" y="704" type="line"/>
      <point x="427" y="704" type="line"/>
      <point x="419" y="696" type="line"/>
      <point x="382" y="102" type="line"/>
      <point x="366" y="102" type="line"/>
      <point x="296" y="504" type="line"/>
      <point x="288" y="512" type="line"/>
      <point x="224" y="512" type="line"/>
      <point x="216" y="504" type="line"/>
      <point x="146" y="102" type="line"/>
      <point x="130" y="102" type="line"/>
      <point x="93" y="688" type="line"/>
      <point x="93" y="696" type="line"/>
      <point x="85" y="704" type="line"/>
      <point x="25" y="704" type="line"/>
      <point x="17" y="696" type="line"/>
      <point x="17" y="688" type="line"/>
      <point x="75" y="8" type="line"/>
    </contour>
  </outline>
</glyph>
<glyph name="X" format="2">
  <advance width="512"/>
  <unicode hex="0058"/>
  <outline>
    <contour>
      <point x="40" y="0" type="line"/>
      <point x="104" y="0" type="line"/>
      <point x="112" y="8" type="line"/>
      <point x="248" y="288" type="line"/>
      <point x="264" y="288" type="line"/>
      <point x="400" y="8" type="line"/>
      <point x="408" y="0" type="line"/>
      <point x="472" y="0" type="line"/>
      <point x="480" y="8" type="line"/>
      <point x="480" y="16" type="line"/>
      <point x="312" y="344" type="line"/>
      <point x="312" y="360" type="line"/>
      <point x="480" y="688" type="line"/>
      <point x="480" y="696" type="line"/>
      <point x="472" y="704" type="line"/>
      <point x="408" y="704" type="line"/>
      <point x="400" y="696" type="line"/>
      <point x="264" y="416" type="line"/>
      <point x="248" y="416" type="line"/>
      <point x="112" y="696" type="line"/>
      <point x="104" y="704" type="line"/>
      <point x="40" y="704" type="line"/>
      <point x="32" y="696" type="line"/>
      <point x="32" y="688" type="line"/>
      <point x="200" y="360" type="line"/>
      <point x="200" y="344" type="line"/>
      <point x="32" y="16" type="line"/>
      <point x="32" y="8" type="line"/>
    </contour>
  </outline>
</glyph>
<glyph name="Y" format="2">
  <advance width="512"/>
  <unicode hex="0059"/>
  <anchor x="248" y="704" name="top"/>
  <outline>
    <contour>
      <point x="228" y="0" type="line"/>
      <point x="284" y="0" type="line"/>
      <point x="292" y="8" type="line"/>
      <point x="292" y="312" type="line"/>
      <point x="480" y="688" type="line"/>
      <point x="480" y="696" type="line"/>
      <point x="472" y="704" type="line"/>
      <point x="408" y="704" type="line"/>
      <point x="400" y="696" type="line"/>
      <point x="264" y="400" type="line"/>
      <point x="248" y="400" type="line"/>
      <point x="112" y="696" type="line"/>
      <point x="104" y="704" type="line"/>
      <point x="40" y="704" type="line"/>
      <point x="32" y="696" type="line"/>
      <point x="32" y="688" type="line"/>
      <point x="220" y="312" type="line"/>
      <point x="220" y="8" type="line"/>
    </contour>
  </outline>
</glyph>
<glyph name="bracketleft" format="2">
  <advance width="512"/>
  <unicode hex="005B"/>
  <outline>
    <contour>
      <point x="132" y="-208" type="line"/>
      <point x="410" y="-208" type="line"/>
      <point x="410" y="-128" type="line"/>
      <point x="204" y="-128" type="line"/>
      <point x="204" y="624" type="line"/>
      <point x="410" y="624" type="line"/>
      <point x="410" y="704" type="line"/>
      <point x="132" y="704" type="line"/>
    </contour>
  </outline>
</glyph>
<glyph name="grave" format="2">
  <advance width="512"/>
  <unicode hex="0060"/>
  <outline>
    <contour>
      <point x="292" y="408" type="line"/>
      <point x="362" y="408" type="line"/>
      <point x="282" y="768" type="line"/>
      <point x="119" y="768" type="line"/>
    </contour>
  </outline>
</glyph>
<glyph name="a" format="2">
  <advance width="512"/>
  <unicode hex="0061"/>
  <anchor x="212" y="0" name="bottom"/>
  <anchor x="402" y="58" name="ogonek"/>
  <anchor x="250" y="512" name="top"/>
  <outline>
    <contour>
      <point x="210" y="64" type="curve" smooth="yes"/>
      <point x="174" y="64"/>
      <point x="136" y="77"/>
      <point x="136" y="136" type="curve" smooth="yes"/>
      <point x="136" y="210"/>
      <point x="152" y="249"/>
      <point x="243" y="249" type="curve" smooth="yes"/>
      <point x="316" y="249" type="line"/>
      <point x="324" y="241" type="line"/>
      <point x="324" y="136" type="line" smooth="yes"/>
      <point x="324" y="77"/>
      <point x="300" y="64"/>
    </contour>
    <contour>
      <point x="202" y="-16" type="curve" smooth="yes"/>
      <point x="247" y="-16"/>
      <point x="297" y="7"/>
      <point x="324" y="42" type="curve"/>
      <point x="332" y="42" type="line"/>
      <point x="348" y="12"/>
      <point x="376" y="0"/>
      <point x="409" y="0" type="curve"/>
      <point x="440" y="0" type="line"/>
      <point x="448" y="8" type="line"/>
      <point x="448" y="72" type="line"/>
      <point x="440" y="80" type="line"/>
      <point x="425" y="80" type="line" smooth="yes"/>
      <point x="404" y="80"/>
      <point x="396" y="97"/>
      <point x="396" y="129" type="curve" smooth="yes"/>
      <point x="396" y="370" type="line" smooth="yes"/>
      <point x="396" y="472"/>
      <point x="369" y="528"/>
      <point x="248" y="528" type="curve" smooth="yes"/>
      <point x="163" y="528"/>
      <point x="91" y="492"/>
      <point x="91" y="401" type="curve" smooth="yes"/>
      <point x="91" y="380" type="line"/>
      <point x="99" y="372" type="line"/>
      <point x="155" y="372" type="line"/>
      <point x="163" y="380" type="line"/>
      <point x="163" y="401" type="line" smooth="yes"/>
      <point x="163" y="429"/>
      <point x="177" y="448"/>
      <point x="248" y="448" type="curve" smooth="yes"/>
      <point x="301" y="448"/>
      <point x="324" y="429"/>
      <point x="324" y="380" type="curve" smooth="yes"/>
      <point x="324" y="321" type="line"/>
      <point x="316" y="313" type="line"/>
      <point x="229" y="313" type="line" smooth="yes"/>
      <point x="124" y="313"/>
      <point x="64" y="264"/>
      <point x="64" y="136" type="curve" smooth="yes"/>
      <point x="64" y="33"/>
      <point x="131" y="-16"/>
    </contour>
  </outline>
</glyph>
<glyph name="b" format="2">
  <advance width="512"/>
  <unicode hex="0062"/>
  <outline>
    <contour>
      <point x="88" y="0" type="line"/>
      <point x="144" y="0" type="line"/>
      <point x="152" y="8" type="line"/>
      <point x="152" y="48" type="line"/>
      <point x="160" y="48" type="line"/>
      <point x="193" y="0"/>
      <point x="235" y="-16"/>
      <point x="288" y="-16" type="curve" smooth="yes"/>
      <point x="377" y="-16"/>
      <point x="432" y="40"/>
      <point x="432" y="168" type="curve" smooth="yes"/>
      <point x="432" y="344" type="line" smooth="yes"/>
      <point x="432" y="472"/>
      <point x="368" y="528"/>
      <point x="280" y="528" type="curve" smooth="yes"/>
      <point x="232" y="528"/>
      <point x="187" y="512"/>
      <point x="160" y="469" type="curve"/>
      <point x="152" y="469" type="line"/>
      <point x="152" y="696" type="line"/>
      <point x="144" y="704" type="line"/>
      <point x="88" y="704" type="line"/>
      <point x="80" y="696" type="line"/>
      <point x="80" y="8" type="line"/>
    </contour>
    <contour>
      <point x="264" y="64" type="curve" smooth="yes"/>
      <point x="181" y="64"/>
      <point x="152" y="104"/>
      <point x="152" y="200" type="curve" smooth="yes"/>
      <point x="152" y="312" type="line" smooth="yes"/>
      <point x="152" y="408"/>
      <point x="184" y="448"/>
      <point x="256" y="448" type="curve" smooth="yes"/>
      <point x="328" y="448"/>
      <point x="360" y="408"/>
      <point x="360" y="312" type="curve" smooth="yes"/>
      <point x="360" y="200" type="line" smooth="yes"/>
      <point x="360" y="104"/>
      <point x="328" y="64"/>
    </contour>
  </outline>
</glyph>
<glyph name="e" format="2">
  <advance width="512"/>
  <unicode hex="0065"/>
  <outline>
    <contour>
      <point x="257" y="-16" type="curve" smooth="yes"/>
      <point x="367" y="-16"/>
      <point x="424" y="53"/>
      <point x="424" y="124" type="curve" smooth="yes"/>
      <point x="424" y="156" type="line"/>
      <point x="416" y="164" type="line"/>
      <point x="360" y="164" type="line"/>
      <point x="352" y="156" type="line"/>
      <point x="352" y="124" type="line" smooth="yes"/>
      <point x="352" y="84"/>
      <point x="315" y="64"/>
      <point x="257" y="64" type="curve" smooth="yes"/>
      <point x="186" y="64"/>
      <point x="152" y="108"/>
      <point x="152" y="174" type="curve" smooth="yes"/>
      <point x="152" y="231" type="line"/>
      <point x="160" y="239" type="line"/>
      <point x="424" y="239" type="line"/>
      <point x="432" y="247" type="line"/>
      <point x="432" y="336" type="line" smooth="yes"/>
      <point x="432" y="467"/>
      <point x="372" y="528"/>
      <point x="256" y="528" type="curve" smooth="yes"/>
      <point x="128" y="528"/>
      <point x="80" y="460"/>
      <point x="80" y="344" type="curve" smooth="yes"/>
      <point x="80" y="158" type="line" smooth="yes"/>
      <point x="80" y="29"/>
      <point x="143" y="-16"/>
    </contour>
    <contour>
      <point x="160" y="311" type="line"/>
      <point x="152" y="319" type="line"/>
      <point x="152" y="328" type="line" smooth="yes"/>
      <point x="152" y="402"/>
      <point x="183" y="448"/>
      <point x="256" y="448" type="curve" smooth="yes"/>
      <point x="330" y="448"/>
      <point x="360" y="402"/>
      <point x="360" y="328" type="curve" smooth="yes"/>
      <point x="360" y="319" type="line"/>
      <point x="352" y="311" type="line"/>
    </contour>
  </outline>
</glyph>
<glyph name="f" format="2">
  <advance width="512"/>
  <unicode hex="0066"/>
  <outline>
    <contour>
      <point x="217" y="0" type="line"/>
      <point x="273" y="0" type="line"/>
      <point x="281" y="8" type="line"/>
      <point x="281" y="424" type="line"/>
      <point x="289" y="432" type="line"/>
      <point x="472" y="432" type="line"/>
      <point x="480" y="440" type="line"/>
      <point x="480" y="504" type="line"/>
      <point x="472" y="512" type="line"/>
      <point x="289" y="512" type="line"/>
      <point x="281" y="520" type="line"/>
      <point x="281" y="616" type="line" smooth="yes"/>
      <point x="281" y="645"/>
      <point x="285" y="688"/>
      <point x="330" y="688" type="curve" smooth="yes"/>
      <point x="504" y="688" type="line"/>
      <point x="512" y="696" type="line"/>
      <point x="512" y="760" type="line"/>
      <point x="504" y="768" type="line"/>
      <point x="330" y="768" type="line"/>
      <point x="242" y="768"/>
      <point x="209" y="691"/>
      <point x="209" y="612" type="curve" smooth="yes"/>
      <point x="209" y="520" type="line"/>
      <point x="201" y="512" type="line"/>
      <point x="56" y="512" type="line"/>
      <point x="48" y="504" type="line"/>
      <point x="48" y="440" type="line"/>
      <point x="56" y="432" type="line"/>
      <point x="201" y="432" type="line"/>
      <point x="209" y="424" type="line"/>
      <point x="209" y="8" type="line"/>
    </contour>
  </outline>
</glyph>
<glyph name="h" format="2">
  <advance width="512"/>
  <unicode hex="0068"/>
  <outline>
    <contour>
      <point x="80" y="0" type="line"/>
      <point x="136" y="0" type="line"/>
      <point x="144" y="8" type="line"/>
      <point x="144" y="337" type="line" smooth="yes"/>
      <point x="144" y="421"/>
      <point x="206" y="448"/>
      <point x="262" y="448" type="curve" smooth="yes"/>
      <point x="318" y="448"/>
      <point x="368" y="421"/>
      <point x="368" y="337" type="curve" smooth="yes"/>
      <point x="368" y="8" type="line"/>
      <point x="376" y="0" type="line"/>
      <point x="432" y="0" type="line"/>
      <point x="440" y="8" type="line"/>
      <point x="440" y="353" type="line" smooth="yes"/>
      <point x="440" y="468"/>
      <point x="377" y="528"/>
      <point x="292" y="528" type="curve" smooth="yes"/>
      <point x="232" y="528"/>
      <point x="187" y="502"/>
      <point x="152" y="456" type="curve"/>
      <point x="144" y="456" type="line"/>
      <point x="144" y="760" type="line"/>
      <point x="136" y="768" type="line"/>
      <point x="80" y="768" type="line"/>
      <point x="72" y="760" type="line"/>
      <point x="72" y="8" type="line"/>
    </contour>
  </outline>
</glyph>
<glyph name="l" format="2">
  <advance width="512"/>
  <unicode hex="006C"/>
  <anchor x="239" y="704" name="top"/>
  <outline>
    <contour>
      <point x="48" y="0" type="line"/>
      <point x="464" y="0" type="line"/>
      <point x="472" y="8" type="line"/>
      <point x="472" y="136" type="line"/>
      <point x="464" y="144" type="line"/>
      <point x="322" y="144" type="line"/>
      <point x="314" y="152" type="line"/>
      <point x="314" y="696" type="line"/>
      <point x="306" y="704" type="line"/>
      <point x="48" y="704" type="line"/>
      <point x="40" y="696" type="line"/>
      <point x="40" y="568" type="line"/>
      <point x="48" y="560" type="line"/>
      <point x="178" y="560" type="line"/>
      <point x="186" y="552" type="line"/>
      <point x="186" y="152" type="line"/>
      <point x="178" y="144" type="line"/>
      <point x="48" y="144" type="line"/>
      <point x="40" y="136" type="line"/>
      <point x="40" y="8" type="line"/>
    </contour>
  </outline>
</glyph>
<glyph name="m" format="2">
  <advance width="512"/>
  <unicode hex="006D"/>
  <outline>
    <contour>
      <point x="68" y="0" type="line"/>
      <point x="122" y="0" type="line"/>
      <point x="130" y="8" type="line"/>
      <point x="130" y="382" type="line" smooth="yes"/>
      <point x="130" y="421"/>
      <point x="148" y="441"/>
      <point x="178" y="441" type="curve" smooth="yes"/>
      <point x="208" y="441"/>
      <point x="226" y="421"/>
      <point x="226" y="382" type="curve" smooth="yes"/>
      <point x="226" y="8" type="line"/>
      <point x="234" y="0" type="line"/>
      <point x="278" y="0" type="line"/>
      <point x="286" y="8" type="line"/>
      <point x="286" y="382" type="line" smooth="yes"/>
      <point x="286" y="421"/>
      <point x="304" y="441"/>
      <point x="334" y="441" type="curve" smooth="yes"/>
      <point x="364" y="441"/>
      <point x="382" y="421"/>
      <point x="382" y="382" type="curve" smooth="yes"/>
      <point x="382" y="8" type="line"/>
      <point x="390" y="0" type="line"/>
      <point x="444" y="0" type="line"/>
      <point x="452" y="8" type="line"/>
      <point x="452" y="426" type="line" smooth="yes"/>
      <point x="452" y="502"/>
      <point x="412" y="528"/>
      <point x="368" y="528" type="curve" smooth="yes"/>
      <point x="334" y="528"/>
      <point x="302" y="502"/>
      <point x="291" y="464" type="curve"/>
      <point x="283" y="464" type="line"/>
      <point x="272" y="502"/>
      <point x="248" y="528"/>
      <point x="211" y="528" type="curve" smooth="yes"/>
      <point x="175" y="528"/>
      <point x="150" y="502"/>
      <point x="140" y="464" type="curve"/>
      <point x="132" y="464" type="line"/>
      <point x="124" y="504" type="line"/>
      <point x="116" y="512" type="line"/>
      <point x="68" y="512" type="line"/>
      <point x="60" y="504" type="line"/>
      <point x="60" y="8" type="line"/>
    </contour>
  </outline>
</glyph>
<glyph name="n" format="2">
  <advance width="512"/>
  <unicode hex="006E"/>
  <anchor x="260" y="512" name="top"/>
  <outline>
    <contour>
      <point x="80" y="0" type="line"/>
      <point x="136" y="0" type="line"/>
      <point x="144" y="8" type="line"/>
      <point x="144" y="329" type="line" smooth="yes"/>
      <point x="144" y="413"/>
      <point x="206" y="440"/>
      <point x="262" y="440" type="curve" smooth="yes"/>
      <point x="318" y="440"/>
      <point x="368" y="413"/>
      <point x="368" y="329" type="curve" smooth="yes"/>
      <point x="368" y="8" type="line"/>
      <point x="376" y="0" type="line"/>
      <point x="432" y="0" type="line"/>
      <point x="440" y="8" type="line"/>
      <point x="440" y="345" type="line" smooth="yes"/>
      <point x="440" y="460"/>
      <point x="377" y="520"/>
      <point x="292" y="520" type="curve" smooth="yes"/>
      <point x="232" y="520"/>
      <point x="179" y="494"/>
      <point x="144" y="448" type="curve"/>
      <point x="136" y="448" type="line"/>
      <point x="136" y="504" type="line"/>
      <point x="128" y="512" type="line"/>
      <point x="80" y="512" type="line"/>
      <point x="72" y="504" type="line"/>
      <point x="72" y="8" type="line"/>
    </contour>
  </outline>
</glyph>
<glyph name="o" format="2">
  <advance width="512"/>
  <unicode hex="006F"/>
  <outline>
    <contour>
      <point x="256" y="-8" type="curve" smooth="yes"/>
      <point x="368" y="-8"/>
      <point x="432" y="48"/>
      <point x="432" y="160" type="curve" smooth="yes"/>
      <point x="432" y="352" type="line" smooth="yes"/>
      <point x="432" y="464"/>
      <point x="368" y="520"/>
      <point x="256" y="520" type="curve" smooth="yes"/>
      <point x="144" y="520"/>
      <point x="80" y="464"/>
      <point x="80" y="352" type="curve" smooth="yes"/>
      <point x="80" y="160" type="line" smooth="yes"/>
      <point x="80" y="48"/>
      <point x="144" y="-8"/>
    </contour>
    <contour>
      <point x="256" y="136" type="curve" smooth="yes"/>
      <point x="224" y="136"/>
      <point x="208" y="152"/>
      <point x="208" y="184" type="curve" smooth="yes"/>
      <point x="208" y="328" type="line" smooth="yes"/>
      <point x="208" y="360"/>
      <point x="224" y="376"/>
      <point x="256" y="376" type="curve" smooth="yes"/>
      <point x="288" y="376"/>
      <point x="304" y="360"/>
      <point x="304" y="328" type="curve" smooth="yes"/>
      <point x="304" y="184" type="line" smooth="yes"/>
      <point x="304" y="152"/>
      <point x="288" y="136"/>
    </contour>
  </outline>
</glyph>
<glyph name="q" format="2">
  <advance width="512"/>
  <unicode hex="0071"/>
  <outline>
    <contour>
      <point x="368" y="-208" type="line"/>
      <point x="424" y="-208" type="line"/>
      <point x="432" y="-200" type="line"/>
      <point x="432" y="504" type="line"/>
      <point x="424" y="512" type="line"/>
      <point x="384" y="512" type="line"/>
      <point x="376" y="504" type="line"/>
      <point x="368" y="472" type="line"/>
      <point x="360" y="472" type="line"/>
      <point x="341" y="499"/>
      <point x="302" y="528"/>
      <point x="248" y="528" type="curve" smooth="yes"/>
      <point x="136" y="528"/>
      <point x="80" y="464"/>
      <point x="80" y="336" type="curve" smooth="yes"/>
      <point x="80" y="176" type="line" smooth="yes"/>
      <point x="80" y="48"/>
      <point x="136" y="-16"/>
      <point x="248" y="-16" type="curve" smooth="yes"/>
      <point x="302" y="-16"/>
      <point x="341" y="20"/>
      <point x="352" y="43" type="curve"/>
      <point x="360" y="43" type="line"/>
      <point x="360" y="-200" type="line"/>
    </contour>
    <contour>
      <point x="256" y="64" type="curve" smooth="yes"/>
      <point x="176" y="64"/>
      <point x="152" y="113"/>
      <point x="152" y="192" type="curve" smooth="yes"/>
      <point x="152" y="320" type="line" smooth="yes"/>
      <point x="152" y="416"/>
      <point x="192" y="448"/>
      <point x="256" y="448" type="curve" smooth="yes"/>
      <point x="320" y="448"/>
      <point x="360" y="416"/>
      <point x="360" y="320" type="curve" smooth="yes"/>
      <point x="360" y="192" type="line" smooth="yes"/>
      <point x="360" y="113"/>
      <point x="328" y="64"/>
    </contour>
  </outline>
</glyph>
<glyph name="r" format="2">
  <advance width="512"/>
  <unicode hex="0072"/>
  <anchor x="269" y="512" name="top"/>
  <outline>
    <contour>
      <point x="72" y="0" type="line"/>
      <point x="354" y="0" type="line"/>
      <point x="362" y="8" type="line"/>
      <point x="362" y="72" type="line"/>
      <point x="354" y="80" type="line"/>
      <point x="242" y="80" type="line"/>
      <point x="234" y="88" type="line"/>
      <point x="234" y="328" type="line" smooth="yes"/>
      <point x="234" y="392"/>
      <point x="250" y="448"/>
      <point x="322" y="448" type="curve" smooth="yes"/>
      <point x="394" y="448"/>
      <point x="410" y="392"/>
      <point x="410" y="328" type="curve" smooth="yes"/>
      <point x="410" y="312" type="line"/>
      <point x="418" y="304" type="line"/>
      <point x="474" y="304" type="line"/>
      <point x="482" y="312" type="line"/>
      <point x="482" y="336" type="line" smooth="yes"/>
      <point x="482" y="456"/>
      <point x="450" y="528"/>
      <point x="338" y="528" type="curve" smooth="yes"/>
      <point x="302" y="528"/>
      <point x="260" y="512"/>
      <point x="234" y="456" type="curve"/>
      <point x="226" y="456" type="line"/>
      <point x="218" y="464" type="line"/>
      <point x="226" y="496" type="line"/>
      <point x="226" y="504" type="line"/>
      <point x="218" y="512" type="line"/>
      <point x="74" y="512" type="line"/>
      <point x="66" y="504" type="line"/>
      <point x="66" y="440" type="line"/>
      <point x="74" y="432" type="line"/>
      <point x="154" y="432" type="line"/>
      <point x="162" y="424" type="line"/>
      <point x="162" y="88" type="line"/>
      <point x="154" y="80" type="line"/>
      <point x="72" y="80" type="line"/>
      <point x="64" y="72" type="line"/>
      <point x="64" y="8" type="line"/>
    </contour>
  </outline>
</glyph>
<glyph name="u" format="2">
  <advance width="512"/>
  <unicode hex="0075"/>
  <outline>
    <contour>
      <point x="432" y="512" type="line"/>
      <point x="376" y="512" type="line"/>
      <point x="368" y="504" type="line"/>
      <point x="368" y="167" type="line" smooth="yes"/>
      <point x="368" y="83"/>
      <point x="306" y="64"/>
      <point x="250" y="64" type="curve" smooth="yes"/>
      <point x="194" y="64"/>
      <point x="144" y="83"/>
      <point x="144" y="167" type="curve" smooth="yes"/>
      <point x="144" y="504" type="line"/>
      <point x="136" y="512" type="line"/>
      <point x="80" y="512" type="line"/>
      <point x="72" y="504" type="line"/>
      <point x="72" y="151" type="line" smooth="yes"/>
      <point x="72" y="36"/>
      <point x="135" y="-16"/>
      <point x="220" y="-16" type="curve" smooth="yes"/>
      <point x="280" y="-16"/>
      <point x="333" y="18"/>
      <point x="368" y="64" type="curve"/>
      <point x="376" y="64" type="line"/>
      <point x="376" y="8" type="line"/>
      <point x="384" y="0" type="line"/>
      <point x="432" y="0" type="line"/>
      <point x="440" y="8" type="line"/>
      <point x="440" y="504" type="line"/>
    </contour>
  </outline>
</glyph>
<glyph name="v" format="2">
  <advance width="512"/>
  <unicode hex="0076"/>
  <outline>
    <contour>
      <point x="192" y="0" type="line"/>
      <point x="320" y="0" type="line"/>
      <point x="328" y="8" type="line"/>
      <point x="456" y="496" type="line"/>
      <point x="456" y="504" type="line"/>
      <point x="448" y="512" type="line"/>
      <point x="384" y="512" type="line"/>
      <point x="376" y="504" type="line"/>
      <point x="264" y="80" type="line"/>
      <point x="248" y="80" type="line"/>
      <point x="136" y="504" type="line"/>
      <point x="128" y="512" type="line"/>
      <point x="64" y="512" type="line"/>
      <point x="56" y="504" type="line"/>
      <point x="56" y="496" type="line"/>
      <point x="184" y="8" type="line"/>
    </contour>
  </outline>
</glyph>
<glyph name="x" format="2">
  <advance width="512"/>
  <unicode hex="0078"/>
  <outline>
    <contour>
      <point x="56" y="0" type="line"/>
      <point x="120" y="0" type="line"/>
      <point x="128" y="8" type="line"/>
      <point x="248" y="200" type="line"/>
      <point x="264" y="200" type="line"/>
      <point x="384" y="8" type="line"/>
      <point x="392" y="0" type="line"/>
      <point x="456" y="0" type="line"/>
      <point x="464" y="8" type="line"/>
      <point x="464" y="16" type="line"/>
      <point x="312" y="256" type="line"/>
      <point x="312" y="264" type="line"/>
      <point x="464" y="496" type="line"/>
      <point x="464" y="504" type="line"/>
      <point x="456" y="512" type="line"/>
      <point x="392" y="512" type="line"/>
      <point x="384" y="504" type="line"/>
      <point x="264" y="312" type="line"/>
      <point x="248" y="312" type="line"/>
      <point x="128" y="504" type="line"/>
      <point x="120" y="512" type="line"/>
      <point x="56" y="512" type="line"/>
      <point x="48" y="504" type="line"/>
      <point x="48" y="496" type="line"/>
      <point x="200" y="264" type="line"/>
      <point x="200" y="256" type="line"/>
      <point x="48" y="16" type="line"/>
      <point x="48" y="8" type="line"/>
    </contour>
  </outline>
</glyph>
<glyph name="y" format="2">
  <advance width="512"/>
  <unicode hex="0079"/>
  <anchor x="263" y="512" name="top"/>
  <outline>
    <contour>
      <point x="200" y="0" type="line"/>
      <point x="250" y="0" type="line"/>
      <point x="250" y="-8" type="line"/>
      <point x="232" y="-67" type="line" smooth="yes"/>
      <point x="218" y="-113"/>
      <point x="177" y="-128"/>
      <point x="141" y="-128" type="curve" smooth="yes"/>
      <point x="86" y="-128" type="line"/>
      <point x="78" y="-136" type="line"/>
      <point x="78" y="-200" type="line"/>
      <point x="86" y="-208" type="line"/>
      <point x="149" y="-208" type="line" smooth="yes"/>
      <point x="242" y="-208"/>
      <point x="269" y="-172"/>
      <point x="282" y="-124" type="curve" smooth="yes"/>
      <point x="456" y="496" type="line"/>
      <point x="456" y="504" type="line"/>
      <point x="448" y="512" type="line"/>
      <point x="392" y="512" type="line"/>
      <point x="384" y="504" type="line"/>
      <point x="272" y="80" type="line"/>
      <point x="240" y="80" type="line"/>
      <point x="128" y="504" type="line"/>
      <point x="120" y="512" type="line"/>
      <point x="64" y="512" type="line"/>
      <point x="56" y="504" type="line"/>
      <point x="56" y="496" type="line"/>
      <point x="192" y="8" type="line"/>
    </contour>
  </outline>
</glyph>
<glyph name="braceleft" format="2">
  <advance width="512"/>
  <unicode hex="007B"/>
  <outline>
    <contour>
      <point x="394" y="-208" type="curve" smooth="yes"/>
      <point x="418" y="-208" type="line"/>
      <point x="426" y="-200" type="line"/>
      <point x="426" y="-138" type="line"/>
      <point x="418" y="-130" type="line"/>
      <point x="394" y="-130" type="line" smooth="yes"/>
      <point x="355" y="-130"/>
      <point x="201" y="-115"/>
      <point x="201" y="-44" type="curve" smooth="yes"/>
      <point x="201" y="36"/>
      <point x="323" y="42"/>
      <point x="323" y="152" type="curve" smooth="yes"/>
      <point x="323" y="229"/>
      <point x="248" y="271"/>
      <point x="179" y="284" type="curve"/>
      <point x="179" y="289" type="line"/>
      <point x="248" y="294"/>
      <point x="323" y="332"/>
      <point x="323" y="404" type="curve" smooth="yes"/>
      <point x="323" y="503"/>
      <point x="205" y="529"/>
      <point x="205" y="606" type="curve" smooth="yes"/>
      <point x="205" y="696"/>
      <point x="320" y="688"/>
      <point x="410" y="688" type="curve" smooth="yes"/>
      <point x="450" y="688" type="line"/>
      <point x="458" y="696" type="line"/>
      <point x="458" y="760" type="line"/>
      <point x="450" y="768" type="line"/>
      <point x="410" y="768" type="line" smooth="yes"/>
      <point x="183" y="768"/>
      <point x="135" y="718"/>
      <point x="135" y="606" type="curve" smooth="yes"/>
      <point x="135" y="538"/>
      <point x="251" y="453"/>
      <point x="251" y="404" type="curve" smooth="yes"/>
      <point x="251" y="328"/>
      <point x="151" y="331"/>
      <point x="75" y="331" type="curve" smooth="yes"/>
      <point x="60" y="331" type="line"/>
      <point x="52" y="323" type="line"/>
      <point x="52" y="253" type="line"/>
      <point x="60" y="245" type="line"/>
      <point x="78" y="245" type="line" smooth="yes"/>
      <point x="152" y="245"/>
      <point x="256" y="212"/>
      <point x="256" y="152" type="curve" smooth="yes"/>
      <point x="256" y="71"/>
      <point x="135" y="63"/>
      <point x="135" y="-44" type="curve" smooth="yes"/>
      <point x="135" y="-152"/>
      <point x="207" y="-208"/>
    </contour>
  </outline>
</glyph>
<glyph name="braceright" format="2">
  <advance width="512"/>
  <unicode hex="007D"/>
  <outline>
    <contour>
      <point x="116" y="-208" type="line" smooth="yes"/>
      <point x="303" y="-208"/>
      <point x="375" y="-152"/>
      <point x="375" y="-44" type="curve" smooth="yes"/>
      <point x="375" y="63"/>
      <point x="254" y="71"/>
      <point x="254" y="152" type="curve" smooth="yes"/>
      <point x="254" y="212"/>
      <point x="358" y="245"/>
      <point x="432" y="245" type="curve" smooth="yes"/>
      <point x="450" y="245" type="line"/>
      <point x="458" y="253" type="line"/>
      <point x="458" y="323" type="line"/>
      <point x="450" y="331" type="line"/>
      <point x="435" y="331" type="line" smooth="yes"/>
      <point x="359" y="331"/>
      <point x="259" y="328"/>
      <point x="259" y="404" type="curve" smooth="yes"/>
      <point x="259" y="453"/>
      <point x="375" y="538"/>
      <point x="375" y="606" type="curve" smooth="yes"/>
      <point x="375" y="718"/>
      <point x="327" y="768"/>
      <point x="100" y="768" type="curve" smooth="yes"/>
      <point x="60" y="768" type="line"/>
      <point x="52" y="760" type="line"/>
      <point x="52" y="696" type="line"/>
      <point x="60" y="688" type="line"/>
      <point x="100" y="688" type="line" smooth="yes"/>
      <point x="190" y="688"/>
      <point x="305" y="696"/>
      <point x="305" y="606" type="curve" smooth="yes"/>
      <point x="305" y="529"/>
      <point x="187" y="503"/>
      <point x="187" y="404" type="curve" smooth="yes"/>
      <point x="187" y="332"/>
      <point x="262" y="294"/>
      <point x="331" y="289" type="curve"/>
      <point x="331" y="284" type="line"/>
      <point x="262" y="271"/>
      <point x="187" y="229"/>
      <point x="187" y="152" type="curve" smooth="yes"/>
      <point x="187" y="42"/>
      <point x="309" y="36"/>
      <point x="309" y="-44" type="curve" smooth="yes"/>
      <point x="309" y="-115"/>
      <point x="155" y="-130"/>
      <point x="116" y="-130" type="curve" smooth="yes"/>
      <point x="92" y="-130" type="line"/>
      <point x="84" y="-138" type="line"/>
      <point x="84" y="-200" type="line"/>
      <point x="92" y="-208" type="line"/>
    </contour>
  </outline>
</glyph>
<glyph name="yen" format="2">
  <advance width="512"/>
  <unicode hex="00A5"/>
  <outline>
    <contour>
      <point x="212" y="0" type="line"/>
      <point x="302" y="0" type="line"/>
      <point x="302" y="172" type="line"/>
      <point x="452" y="172" type="line"/>
      <point x="452" y="236" type="line"/>
      <point x="302" y="236" type="line"/>
      <point x="302" y="348" type="line"/>
      <point x="452" y="348" type="line"/>
      <point x="452" y="412" type="line"/>
      <point x="340" y="412" type="line"/>
      <point x="480" y="768" type="line"/>
      <point x="385" y="768" type="line"/>
      <point x="259" y="424" type="line"/>
      <point x="130" y="768" type="line"/>
      <point x="32" y="768" type="line"/>
      <point x="174" y="412" type="line"/>
      <point x="62" y="412" type="line"/>
      <point x="62" y="348" type="line"/>
      <point x="212" y="348" type="line"/>
      <point x="212" y="236" type="line"/>
      <point x="62" y="236" type="line"/>
      <point x="62" y="172" type="line"/>
      <point x="212" y="172" type="line"/>
    </contour>
  </outline>
</glyph>
<glyph name="section" format="2">
  <advance width="512"/>
  <unicode hex="00A7"/>
  <outline>
    <contour>
      <point x="245" y="148" type="curve" smooth="yes"/>
      <point x="168" y="148"/>
      <point x="133" y="196"/>
      <point x="133" y="252" type="curve" smooth="yes"/>
      <point x="133" y="328"/>
      <point x="185" y="358"/>
      <point x="234" y="359" type="curve"/>
      <point x="279" y="346"/>
      <point x="369" y="334"/>
      <point x="369" y="247" type="curve" smooth="yes"/>
      <point x="369" y="163"/>
      <point x="303" y="148"/>
    </contour>
    <contour>
      <point x="266" y="-224" type="curve" smooth="yes"/>
      <point x="389" y="-224"/>
      <point x="459" y="-139"/>
      <point x="459" y="-16" type="curve" smooth="yes"/>
      <point x="459" y="31"/>
      <point x="420" y="77"/>
      <point x="349" y="112" type="curve"/>
      <point x="412" y="132"/>
      <point x="451" y="178"/>
      <point x="451" y="266" type="curve" smooth="yes"/>
      <point x="451" y="350"/>
      <point x="420" y="372"/>
      <point x="281" y="426" type="curve" smooth="yes"/>
      <point x="178" y="466"/>
      <point x="135" y="476"/>
      <point x="135" y="528" type="curve" smooth="yes"/>
      <point x="135" y="589"/>
      <point x="170" y="640"/>
      <point x="239" y="640" type="curve" smooth="yes"/>
      <point x="327" y="640"/>
      <point x="346" y="612"/>
      <point x="393" y="555" type="curve"/>
      <point x="444" y="610" type="line"/>
      <point x="400" y="671"/>
      <point x="343" y="720"/>
      <point x="243" y="720" type="curve" smooth="yes"/>
      <point x="112" y="720"/>
      <point x="49" y="635"/>
      <point x="49" y="512" type="curve" smooth="yes"/>
      <point x="49" y="452"/>
      <point x="86" y="424"/>
      <point x="154" y="389" type="curve"/>
      <point x="93" y="368"/>
      <point x="54" y="321"/>
      <point x="54" y="225" type="curve" smooth="yes"/>
      <point x="54" y="149"/>
      <point x="102" y="94"/>
      <point x="236" y="61" type="curve" smooth="yes"/>
      <point x="337" y="37"/>
      <point x="373" y="4"/>
      <point x="373" y="-28" type="curve" smooth="yes"/>
      <point x="373" y="-100"/>
      <point x="329" y="-152"/>
      <point x="274" y="-152" type="curve" smooth="yes"/>
      <point x="209" y="-152"/>
      <point x="167" y="-116"/>
      <point x="120" y="-59" type="curve"/>
      <point x="65" y="-114" type="line"/>
      <point x="114" y="-175"/>
      <point x="190" y="-224"/>
    </contour>
  </outline>
</glyph>
<glyph name="dieresis" format="2">
  <advance width="512"/>
  <unicode hex="00A8"/>
  <outline>
    <contour>
      <point x="167" y="713" type="curve" smooth="yes"/>
      <point x="199" y="713"/>
      <point x="221" y="726"/>
      <point x="221" y="773" type="curve" smooth="yes"/>
      <point x="221" y="815.667"/>
      <point x="200.333" y="829"/>
      <point x="167" y="829" type="curve" smooth="yes"/>
      <point x="135" y="829"/>
      <point x="113" y="815.667"/>
      <point x="113" y="773" type="curve" smooth="yes"/>
      <point x="113" y="725.667"/>
      <point x="135" y="713"/>
    </contour>
    <contour>
      <point x="345" y="713" type="curve" smooth="yes"/>
      <point x="376" y="713"/>
      <point x="399" y="726"/>
      <point x="399" y="773" type="curve" smooth="yes"/>
      <point x="399" y="815.667"/>
      <point x="377" y="829"/>
      <point x="345" y="829" type="curve" smooth="yes"/>
      <point x="311.667" y="829"/>
      <point x="291" y="815.667"/>
      <point x="291" y="773" type="curve" smooth="yes"/>
      <point x="291" y="725.667"/>
      <point x="311.667" y="713"/>
    </contour>
  </outline>
</glyph>
<glyph name="copyright" format="2">
  <advance width="512"/>
  <unicode hex="00A9"/>
  <outline>
    <contour>
      <point x="256" y="-110" type="curve" smooth="yes"/>
      <point x="428" y="-110"/>
      <point x="503" y="22.333"/>
      <point x="503" y="257" type="curve" smooth="yes"/>
      <point x="503" y="397" type="line" smooth="yes"/>
      <point x="503" y="634.333"/>
      <point x="428" y="768"/>
      <point x="256" y="768" type="curve" smooth="yes"/>
      <point x="84" y="768"/>
      <point x="8" y="634.333"/>
      <point x="8" y="397" type="curve" smooth="yes"/>
      <point x="8" y="257" type="line" smooth="yes"/>
      <point x="8" y="22.333"/>
      <point x="82.667" y="-110"/>
    </contour>
    <contour>
      <point x="256" y="-36" type="curve" smooth="yes"/>
      <point x="109" y="-36"/>
      <point x="71" y="71.667"/>
      <point x="71" y="277" type="curve" smooth="yes"/>
      <point x="71" y="377" type="line" smooth="yes"/>
      <point x="71" y="578.333"/>
      <point x="109" y="688"/>
      <point x="256" y="688" type="curve" smooth="yes"/>
      <point x="403" y="688"/>
      <point x="441" y="578.333"/>
      <point x="441" y="377" type="curve" smooth="yes"/>
      <point x="441" y="277" type="line" smooth="yes"/>
      <point x="441" y="71.667"/>
      <point x="403" y="-36"/>
    </contour>
    <contour>
      <point x="262" y="113" type="curve" smooth="yes"/>
      <point x="337" y="113"/>
      <point x="368" y="168"/>
      <point x="366" y="280" type="curve"/>
      <point x="320" y="280" type="line"/>
      <point x="320" y="241"/>
      <point x="303" y="197"/>
      <point x="262" y="197" type="curve" smooth="yes"/>
      <point x="229" y="197"/>
      <point x="199" y="216"/>
      <point x="199" y="283" type="curve" smooth="yes"/>
      <point x="199" y="358" type="line" smooth="yes"/>
      <point x="199" y="400"/>
      <point x="219" y="444"/>
      <point x="261" y="444" type="curve" smooth="yes"/>
      <point x="301" y="444"/>
      <point x="320" y="393"/>
      <point x="320" y="353" type="curve"/>
      <point x="366" y="353" type="line"/>
      <point x="366" y="468"/>
      <point x="337" y="528"/>
      <point x="262" y="528" type="curve" smooth="yes"/>
      <point x="175" y="528"/>
      <point x="139" y="464"/>
      <point x="139" y="348" type="curve" smooth="yes"/>
      <point x="139" y="295" type="line" smooth="yes"/>
      <point x="139" y="178"/>
      <point x="174" y="113"/>
    </contour>
  </outline>
</glyph>
<glyph name="ordfeminine" format="2">
  <advance width="512"/>
  <unicode hex="00AA"/>
  <outline>
    <contour>
      <point x="239" y="416" type="curve" smooth="yes"/>
      <point x="215" y="416"/>
      <point x="191" y="425"/>
      <point x="191" y="463" type="curve" smooth="yes"/>
      <point x="191" y="512"/>
      <point x="217" y="527"/>
      <point x="261" y="527" type="curve" smooth="yes"/>
      <point x="298" y="527" type="line"/>
      <point x="303" y="522" type="line"/>
      <point x="303" y="448" type="line"/>
      <point x="284" y="423"/>
      <point x="261" y="416"/>
    </contour>
    <contour>
      <point x="234" y="364" type="curve" smooth="yes"/>
      <point x="263" y="364"/>
      <point x="288" y="379"/>
      <point x="306" y="402" type="curve"/>
      <point x="311" y="402" type="line"/>
      <point x="316" y="377"/>
      <point x="343" y="374"/>
      <point x="364" y="374" type="curve"/>
      <point x="379" y="374" type="line"/>
      <point x="385" y="379" type="line"/>
      <point x="385" y="422" type="line"/>
      <point x="379" y="427" type="line"/>
      <point x="370" y="427" type="line" smooth="yes"/>
      <point x="356" y="427"/>
      <point x="351" y="438"/>
      <point x="351" y="459" type="curve" smooth="yes"/>
      <point x="351" y="617" type="line" smooth="yes"/>
      <point x="351" y="684"/>
      <point x="332" y="720"/>
      <point x="253" y="720" type="curve" smooth="yes"/>
      <point x="202" y="720"/>
      <point x="161" y="699"/>
      <point x="161" y="636" type="curve" smooth="yes"/>
      <point x="161" y="618" type="line"/>
      <point x="166" y="613" type="line"/>
      <point x="203" y="613" type="line"/>
      <point x="208" y="618" type="line"/>
      <point x="208" y="637" type="line" smooth="yes"/>
      <point x="208" y="661"/>
      <point x="226" y="668"/>
      <point x="253" y="668" type="curve" smooth="yes"/>
      <point x="288" y="668"/>
      <point x="303" y="656"/>
      <point x="303" y="623" type="curve" smooth="yes"/>
      <point x="303" y="579" type="line"/>
      <point x="298" y="574" type="line"/>
      <point x="252" y="574" type="line" smooth="yes"/>
      <point x="188" y="574"/>
      <point x="143" y="547"/>
      <point x="143" y="463" type="curve" smooth="yes"/>
      <point x="143" y="396"/>
      <point x="187" y="364"/>
    </contour>
  </outline>
</glyph>
<glyph name="macron" format="2">
  <advance width="512"/>
  <unicode hex="00AF"/>
  <outline>
    <contour>
      <point x="102" y="624" type="line"/>
      <point x="410" y="624" type="line"/>
      <point x="410" y="704" type="line"/>
      <point x="102" y="704" type="line"/>
    </contour>
  </outline>
</glyph>
<glyph name="degree" format="2">
  <advance width="512"/>
  <unicode hex="00B0"/>
  <outline>
    <contour>
      <point x="256" y="313" type="curve" smooth="yes"/>
      <point x="348" y="313"/>
      <point x="412" y="369"/>
      <point x="412" y="485" type="curve" smooth="yes"/>
      <point x="412" y="593" type="line" smooth="yes"/>
      <point x="412" y="710"/>
      <point x="349" y="768"/>
      <point x="256" y="768" type="curve" smooth="yes"/>
      <point x="164" y="768"/>
      <point x="100" y="710"/>
      <point x="100" y="593" type="curve" smooth="yes"/>
      <point x="100" y="485" type="line" smooth="yes"/>
      <point x="100" y="369"/>
      <point x="164" y="313"/>
    </contour>
    <contour>
      <point x="256" y="409" type="curve" smooth="yes"/>
      <point x="207" y="409"/>
      <point x="166" y="417"/>
      <point x="166" y="482" type="curve" smooth="yes"/>
      <point x="166" y="596" type="line" smooth="yes"/>
      <point x="166" y="657"/>
      <point x="207" y="671"/>
      <point x="256" y="671" type="curve" smooth="yes"/>
      <point x="305" y="671"/>
      <point x="346" y="657"/>
      <point x="346" y="596" type="curve" smooth="yes"/>
      <point x="346" y="482" type="line" smooth="yes"/>
      <point x="346" y="417"/>
      <point x="305" y="409"/>
    </contour>
  </outline>
</glyph>
<glyph name="acute" format="2">
  <advance width="512"/>
  <unicode hex="00B4"/>
  <outline>
    <contour>
      <point x="132" y="512" type="line"/>
      <point x="202" y="512" type="line"/>
      <point x="442" y="768" type="line"/>
      <point x="279" y="768" type="line"/>
    </contour>
  </outline>
</glyph>
<glyph name="newGlyph" format="2">
  <advance width="512"/>
  <unicode hex="00B5"/>
  <outline>
    <contour>
      <point x="59" y="-208" type="line"/>
      <point x="149" y="-208" type="line"/>
      <point x="149" y="36" type="line"/>
      <point x="169" y="5.333"/>
      <point x="196" y="-16"/>
      <point x="228" y="-16" type="curve" smooth="yes"/>
      <point x="279" y="-16"/>
      <point x="317.333" y="27"/>
      <point x="348" y="103" type="curve"/>
      <point x="364" y="103" type="line"/>
      <point x="373.333" y="15"/>
      <point x="391" y="0"/>
      <point x="485" y="0" type="curve"/>
      <point x="485" y="81" type="line"/>
      <point x="444" y="80"/>
      <point x="416" y="84"/>
      <point x="416" y="152" type="curve" smooth="yes"/>
      <point x="416" y="513" type="line"/>
      <point x="333" y="513" type="line"/>
      <point x="333" y="179" type="line" smooth="yes"/>
      <point x="333" y="123"/>
      <point x="269.333" y="75"/>
      <point x="228" y="75" type="curve" smooth="yes"/>
      <point x="184" y="75"/>
      <point x="141" y="108"/>
      <point x="141" y="191" type="curve" smooth="yes"/>
      <point x="141" y="513" type="line"/>
      <point x="58" y="513" type="line"/>
    </contour>
  </outline>
</glyph>
<glyph name="Eth" format="2">
  <advance width="512"/>
  <unicode hex="00D0"/>
  <outline>
    <contour>
      <point x="88" y="0" type="line"/>
      <point x="256" y="0" type="line" smooth="yes"/>
      <point x="400" y="0"/>
      <point x="440" y="41"/>
      <point x="440" y="161" type="curve" smooth="yes"/>
      <point x="440" y="543" type="line" smooth="yes"/>
      <point x="440" y="663"/>
      <point x="400" y="704"/>
      <point x="256" y="704" type="curve" smooth="yes"/>
      <point x="88" y="704" type="line"/>
      <point x="80" y="696" type="line"/>
      <point x="80" y="393" type="line"/>
      <point x="24" y="393" type="line"/>
      <point x="16" y="385" type="line"/>
      <point x="17" y="321" type="line"/>
      <point x="25" y="313" type="line"/>
      <point x="80" y="313" type="line"/>
      <point x="80" y="8" type="line"/>
    </contour>
    <contour>
      <point x="153" y="88" type="line"/>
      <point x="153" y="313" type="line"/>
      <point x="240" y="313" type="line"/>
      <point x="248" y="321" type="line"/>
      <point x="248" y="385" type="line"/>
      <point x="240" y="393" type="line"/>
      <point x="153" y="393" type="line"/>
      <point x="153" y="616" type="line"/>
      <point x="161" y="624" type="line"/>
      <point x="256" y="624" type="line" smooth="yes"/>
      <point x="336" y="624"/>
      <point x="367" y="599"/>
      <point x="367" y="511" type="curve" smooth="yes"/>
      <point x="367" y="193" type="line" smooth="yes"/>
      <point x="367" y="103"/>
      <point x="336" y="80"/>
      <point x="256" y="80" type="curve" smooth="yes"/>
      <point x="161" y="80" type="line"/>
    </contour>
  </outline>
</glyph>
<glyph name="divide" format="2">
  <advance width="512"/>
  <unicode hex="00F7"/>
  <outline>
    <contour>
      <point x="108" y="320" type="line"/>
      <point x="404" y="320" type="line"/>
      <point x="412" y="328" type="line"/>
      <point x="412" y="384" type="line"/>
      <point x="404" y="392" type="line"/>
      <point x="108" y="392" type="line"/>
      <point x="100" y="384" type="line"/>
      <point x="100" y="328" type="line"/>
    </contour>
    <contour>
      <point x="236" y="448" type="line"/>
      <point x="276" y="448" type="line"/>
      <point x="284" y="456" type="line"/>
      <point x="284" y="512" type="line"/>
      <point x="276" y="520" type="line"/>
      <point x="236" y="520" type="line"/>
      <point x="228" y="512" type="line"/>
      <point x="228" y="456" type="line"/>
    </contour>
    <contour>
      <point x="236" y="192" type="line"/>
      <point x="276" y="192" type="line"/>
      <point x="284" y="200" type="line"/>
      <point x="284" y="256" type="line"/>
      <point x="276" y="264" type="line"/>
      <point x="236" y="264" type="line"/>
      <point x="228" y="256" type="line"/>
      <point x="228" y="200" type="line"/>
    </contour>
  </outline>
</glyph>
<glyph name="idotless" format="2">
  <advance width="512"/>
  <unicode hex="0131"/>
  <anchor x="277" y="512" name="top"/>
  <outline>
    <contour>
      <point x="72" y="0" type="line"/>
      <point x="440" y="0" type="line"/>
      <point x="448" y="8" type="line"/>
      <point x="448" y="72" type="line"/>
      <point x="440" y="80" type="line"/>
      <point x="326" y="80" type="line"/>
      <point x="318" y="88" type="line"/>
      <point x="318" y="504" type="line"/>
      <point x="310" y="512" type="line"/>
      <point x="102" y="512" type="line"/>
      <point x="94" y="504" type="line"/>
      <point x="94" y="440" type="line"/>
      <point x="102" y="432" type="line"/>
      <point x="238" y="432" type="line"/>
      <point x="246" y="424" type="line"/>
      <point x="246" y="88" type="line"/>
      <point x="238" y="80" type="line"/>
      <point x="72" y="80" type="line"/>
      <point x="64" y="72" type="line"/>
      <point x="64" y="8" type="line"/>
    </contour>
  </outline>
</glyph>
<glyph name="caron" format="2">
  <advance width="512"/>
  <unicode hex="02C7"/>
  <outline>
    <contour>
      <point x="251" y="595" type="curve" smooth="yes"/>
      <point x="261" y="595" type="line" smooth="yes"/>
      <point x="271" y="595"/>
      <point x="279" y="595"/>
      <point x="293" y="609" type="curve" smooth="yes"/>
      <point x="380" y="694" type="line" smooth="yes"/>
      <point x="388" y="702"/>
      <point x="392" y="708"/>
      <point x="392" y="714" type="curve" smooth="yes"/>
      <point x="392" y="722"/>
      <point x="388" y="725"/>
      <point x="378" y="725" type="curve" smooth="yes"/>
      <point x="361" y="725" type="line" smooth="yes"/>
      <point x="353" y="725"/>
      <point x="341" y="722"/>
      <point x="336" y="718" type="curve" smooth="yes"/>
      <point x="256" y="658" type="line"/>
      <point x="176" y="718" type="line" smooth="yes"/>
      <point x="171" y="722"/>
      <point x="159" y="725"/>
      <point x="151" y="725" type="curve" smooth="yes"/>
      <point x="134" y="725" type="line" smooth="yes"/>
      <point x="124" y="725"/>
      <point x="120" y="722"/>
      <point x="120" y="714" type="curve" smooth="yes"/>
      <point x="120" y="708"/>
      <point x="124" y="702"/>
      <point x="132" y="694" type="curve" smooth="yes"/>
      <point x="219" y="609" type="line" smooth="yes"/>
      <point x="233" y="595"/>
      <point x="241" y="595"/>
    </contour>
  </outline>
</glyph>
<glyph name="tildecomb" format="2">
  <unicode hex="0303"/>
  <anchor x="256" y="512" name="_top"/>
  <anchor x="256" y="674" name="top"/>
  <outline>
    <contour>
      <point x="308" y="576" type="curve" smooth="yes"/>
      <point x="348" y="576"/>
      <point x="375" y="610"/>
      <point x="383" y="655" type="curve"/>
      <point x="354" y="668" type="line"/>
      <point x="344" y="647"/>
      <point x="330" y="623"/>
      <point x="306" y="623" type="curve" smooth="yes"/>
      <point x="277" y="623"/>
      <point x="255" y="668"/>
      <point x="208" y="668" type="curve" smooth="yes"/>
      <point x="167" y="668"/>
      <point x="151" y="630"/>
      <point x="138" y="592" type="curve"/>
      <point x="170" y="576" type="line"/>
      <point x="182" y="591"/>
      <point x="188" y="618"/>
      <point x="211" y="618" type="curve" smooth="yes"/>
      <point x="239" y="618"/>
      <point x="262" y="576"/>
    </contour>
  </outline>
</glyph>
<glyph name="hamza-ar" format="2">
  <advance width="512"/>
  <unicode hex="0621"/>
  <outline>
    <contour>
      <point x="192" y="289" type="line"/>
      <point x="320" y="289" type="line"/>
      <point x="328" y="297" type="line"/>
      <point x="328" y="328" type="line"/>
      <point x="320" y="336" type="line"/>
      <point x="266" y="336" type="line"/>
      <point x="258" y="344" type="line"/>
      <point x="258" y="360" type="line" smooth="yes"/>
      <point x="258" y="369"/>
      <point x="263" y="374"/>
      <point x="273" y="374" type="curve" smooth="yes"/>
      <point x="300" y="374" type="line"/>
      <point x="308" y="382" type="line"/>
      <point x="308" y="416" type="line"/>
      <point x="300" y="424" type="line"/>
      <point x="263" y="424" type="line" smooth="yes"/>
      <point x="224" y="424"/>
      <point x="214" y="403"/>
      <point x="214" y="368" type="curve" smooth="yes"/>
      <point x="214" y="344" type="line"/>
      <point x="206" y="336" type="line"/>
      <point x="192" y="336" type="line"/>
      <point x="184" y="328" type="line"/>
      <point x="184" y="297" type="line"/>
    </contour>
  </outline>
</glyph>
<glyph name="reh-ar" format="2">
  <advance width="512"/>
  <unicode hex="0631"/>
  <anchor x="340" y="192" name="top"/>
  <outline>
    <contour>
      <point x="376" y="-224" type="curve" smooth="yes"/>
      <point x="376" y="184" type="line"/>
      <point x="368" y="192" type="line"/>
      <point x="312" y="192" type="line"/>
      <point x="304" y="184" type="line"/>
      <point x="304" y="-208" type="line" smooth="yes"/>
      <point x="304" y="-256"/>
      <point x="288" y="-272"/>
      <point x="240" y="-272" type="curve" smooth="yes"/>
      <point x="144" y="-272" type="line"/>
      <point x="136" y="-280" type="line"/>
      <point x="136" y="-344" type="line"/>
      <point x="144" y="-352" type="line"/>
      <point x="248" y="-352" type="line" smooth="yes"/>
      <point x="344" y="-352"/>
      <point x="376" y="-320"/>
    </contour>
  </outline>
</glyph>
<glyph name="sad-ar" format="2">
  <advance width="512"/>
  <unicode hex="0635"/>
  <anchor x="295" y="334" name="top"/>
  <outline>
    <contour>
      <point x="96" y="200" type="line"/>
      <point x="96" y="-129" type="line" smooth="yes"/>
      <point x="96" y="-177"/>
      <point x="96" y="-193"/>
      <point x="48" y="-193" type="curve" smooth="yes"/>
      <point x="0" y="-193"/>
      <point x="0" y="-177"/>
      <point x="0" y="-129" type="curve" smooth="yes"/>
      <point x="0" y="-8" type="line"/>
      <point x="-8" y="0" type="line"/>
      <point x="-64" y="0" type="line"/>
      <point x="-72" y="-8" type="line"/>
      <point x="-72" y="-145" type="line" smooth="yes"/>
      <point x="-72" y="-241"/>
      <point x="-56" y="-273"/>
      <point x="40" y="-273" type="curve" smooth="yes"/>
      <point x="56" y="-273" type="line" smooth="yes"/>
      <point x="152" y="-273"/>
      <point x="168" y="-241"/>
      <point x="168" y="-145" type="curve" smooth="yes"/>
      <point x="168" y="0" type="line"/>
      <point x="360" y="0" type="line" smooth="yes"/>
      <point x="456" y="0"/>
      <point x="480" y="32"/>
      <point x="480" y="128" type="curve" smooth="yes"/>
      <point x="480" y="176" type="line" smooth="yes"/>
      <point x="480" y="280"/>
      <point x="456" y="336"/>
      <point x="360" y="336" type="curve" smooth="yes"/>
      <point x="264" y="336"/>
      <point x="256" y="280"/>
      <point x="256" y="176" type="curve" smooth="yes"/>
      <point x="256" y="80" type="line"/>
      <point x="176" y="80" type="line"/>
      <point x="168" y="88" type="line"/>
      <point x="168" y="192" type="line"/>
      <point x="160" y="208" type="line"/>
      <point x="104" y="208" type="line"/>
    </contour>
    <contour>
      <point x="312" y="80" type="line"/>
      <point x="312" y="168" type="line" smooth="yes"/>
      <point x="312" y="224"/>
      <point x="312" y="256"/>
      <point x="360" y="256" type="curve" smooth="yes"/>
      <point x="408" y="256"/>
      <point x="408" y="208"/>
      <point x="408" y="152" type="curve" smooth="yes"/>
      <point x="408" y="104"/>
      <point x="400" y="80"/>
      <point x="352" y="80" type="curve" smooth="yes"/>
    </contour>
  </outline>
</glyph>
<glyph name="kashida-ar" format="2">
  <advance width="512"/>
  <unicode hex="0640"/>
  <outline>
    <contour>
      <point x="24" y="0" type="line"/>
      <point x="488" y="0" type="line"/>
      <point x="496" y="8" type="line"/>
      <point x="496" y="135" type="line"/>
      <point x="488" y="144" type="line"/>
      <point x="24" y="144" type="line"/>
      <point x="16" y="136" type="line"/>
      <point x="16" y="8" type="line"/>
    </contour>
  </outline>
</glyph>
<glyph name="kaf-ar" format="2">
  <advance width="512"/>
  <unicode hex="0643"/>
  <outline>
    <contour>
      <point x="96" y="0" type="curve"/>
      <point x="456" y="0" type="line"/>
      <point x="464" y="8" type="line"/>
      <point x="464" y="592" type="line"/>
      <point x="456" y="600" type="line"/>
      <point x="400" y="600" type="line"/>
      <point x="392" y="592" type="line"/>
      <point x="392" y="88" type="line"/>
      <point x="384" y="80" type="line"/>
      <point x="128" y="80" type="line" smooth="yes"/>
      <point x="96" y="80"/>
      <point x="88" y="88"/>
      <point x="88" y="120" type="curve" smooth="yes"/>
      <point x="88" y="160" type="line"/>
      <point x="80" y="168" type="line"/>
      <point x="24" y="168" type="line"/>
      <point x="16" y="160" type="line"/>
      <point x="16" y="96" type="line" smooth="yes"/>
      <point x="16" y="40"/>
      <point x="32" y="0"/>
    </contour>
    <contour>
      <point x="186" y="153" type="line"/>
      <point x="314" y="153" type="line"/>
      <point x="322" y="161" type="line"/>
      <point x="322" y="192" type="line"/>
      <point x="314" y="200" type="line"/>
      <point x="260" y="200" type="line"/>
      <point x="252" y="208" type="line"/>
      <point x="252" y="224" type="line" smooth="yes"/>
      <point x="252" y="233"/>
      <point x="257" y="238"/>
      <point x="267" y="238" type="curve" smooth="yes"/>
      <point x="294" y="238" type="line"/>
      <point x="302" y="246" type="line"/>
      <point x="302" y="280" type="line"/>
      <point x="294" y="288" type="line"/>
      <point x="257" y="288" type="line" smooth="yes"/>
      <point x="218" y="288"/>
      <point x="208" y="267"/>
      <point x="208" y="232" type="curve" smooth="yes"/>
      <point x="208" y="208" type="line"/>
      <point x="200" y="200" type="line"/>
      <point x="186" y="200" type="line"/>
      <point x="178" y="192" type="line"/>
      <point x="178" y="161" type="line"/>
    </contour>
  </outline>
</glyph>
<glyph name="meem-ar" format="2">
  <advance width="512"/>
  <unicode hex="0645"/>
  <outline>
    <contour>
      <point x="40" y="-256" type="line"/>
      <point x="96" y="-256" type="line"/>
      <point x="104" y="-248" type="line"/>
      <point x="104" y="-64" type="line" smooth="yes"/>
      <point x="104" y="-16"/>
      <point x="120" y="0"/>
      <point x="168" y="0" type="curve" smooth="yes"/>
      <point x="472" y="0" type="line"/>
      <point x="480" y="8" type="line"/>
      <point x="480" y="176" type="line" smooth="yes"/>
      <point x="480" y="280"/>
      <point x="424" y="336"/>
      <point x="320" y="336" type="curve" smooth="yes"/>
      <point x="216" y="336"/>
      <point x="160" y="280"/>
      <point x="160" y="176" type="curve" smooth="yes"/>
      <point x="160" y="168" type="line"/>
      <point x="168" y="160" type="line"/>
      <point x="224" y="160" type="line"/>
      <point x="232" y="168" type="line"/>
      <point x="232" y="224"/>
      <point x="264" y="256"/>
      <point x="320" y="256" type="curve" smooth="yes"/>
      <point x="376" y="256"/>
      <point x="408" y="224"/>
      <point x="408" y="168" type="curve" smooth="yes"/>
      <point x="408" y="80" type="line"/>
      <point x="160" y="80" type="line" smooth="yes"/>
      <point x="64" y="80"/>
      <point x="32" y="48"/>
      <point x="32" y="-48" type="curve" smooth="yes"/>
      <point x="32" y="-248" type="line"/>
    </contour>
  </outline>
</glyph>
<glyph name="heh-ar" format="2">
  <advance width="512"/>
  <unicode hex="0647"/>
  <anchor x="256" y="0" name="bottom"/>
  <anchor x="257" y="336" name="top"/>
  <outline>
    <contour>
      <point x="348" y="0" type="line"/>
      <point x="412" y="0"/>
      <point x="428" y="40"/>
      <point x="428" y="96" type="curve" smooth="yes"/>
      <point x="428" y="240" type="line" smooth="yes"/>
      <point x="428" y="296"/>
      <point x="412" y="336"/>
      <point x="348" y="336" type="curve" smooth="yes"/>
      <point x="164" y="336" type="line" smooth="yes"/>
      <point x="100" y="336"/>
      <point x="84" y="296"/>
      <point x="84" y="240" type="curve" smooth="yes"/>
      <point x="84" y="96" type="line" smooth="yes"/>
      <point x="84" y="40"/>
      <point x="100" y="0"/>
      <point x="164" y="0" type="curve"/>
    </contour>
    <contour>
      <point x="196" y="256" type="curve"/>
      <point x="316" y="256" type="line"/>
      <point x="348" y="256"/>
      <point x="356" y="248"/>
      <point x="356" y="216" type="curve" smooth="yes"/>
      <point x="356" y="120" type="line" smooth="yes"/>
      <point x="356" y="88"/>
      <point x="348" y="80"/>
      <point x="316" y="80" type="curve"/>
      <point x="196" y="80" type="line"/>
      <point x="164" y="80"/>
      <point x="156" y="88"/>
      <point x="156" y="120" type="curve" smooth="yes"/>
      <point x="156" y="216" type="line" smooth="yes"/>
      <point x="156" y="248"/>
      <point x="164" y="256"/>
    </contour>
  </outline>
</glyph>
<glyph name="waw-ar" format="2">
  <advance width="512"/>
  <unicode hex="0648"/>
  <anchor x="326" y="336" name="top"/>
  <outline>
    <contour>
      <point x="160" y="-256" type="line" smooth="yes"/>
      <point x="64" y="-256"/>
      <point x="32" y="-224"/>
      <point x="32" y="-128" type="curve" smooth="yes"/>
      <point x="32" y="-72" type="line"/>
      <point x="40" y="-64" type="line"/>
      <point x="96" y="-64" type="line"/>
      <point x="104" y="-72" type="line"/>
      <point x="104" y="-112" type="line" smooth="yes"/>
      <point x="104" y="-160"/>
      <point x="120" y="-176"/>
      <point x="168" y="-176" type="curve" smooth="yes"/>
      <point x="344" y="-176" type="line" smooth="yes"/>
      <point x="392" y="-176"/>
      <point x="408" y="-160"/>
      <point x="408" y="-112" type="curve" smooth="yes"/>
      <point x="408" y="-8" type="line"/>
      <point x="400" y="0" type="line"/>
      <point x="248" y="0" type="line" smooth="yes"/>
      <point x="200" y="0"/>
      <point x="176" y="24"/>
      <point x="176" y="72" type="curve" smooth="yes"/>
      <point x="176" y="184" type="line" smooth="yes"/>
      <point x="176" y="232"/>
      <point x="200" y="256"/>
      <point x="248" y="256" type="curve" smooth="yes"/>
      <point x="408" y="256" type="line" smooth="yes"/>
      <point x="456" y="256"/>
      <point x="480" y="232"/>
      <point x="480" y="184" type="curve" smooth="yes"/>
      <point x="480" y="-128" type="line" smooth="yes"/>
      <point x="480" y="-224"/>
      <point x="448" y="-256"/>
      <point x="352" y="-256" type="curve" smooth="yes"/>
    </contour>
    <contour>
      <point x="272" y="80" type="curve" smooth="yes"/>
      <point x="400" y="80" type="line"/>
      <point x="408" y="88" type="line"/>
      <point x="408" y="152" type="line" smooth="yes"/>
      <point x="408" y="168"/>
      <point x="400" y="176"/>
      <point x="384" y="176" type="curve" smooth="yes"/>
      <point x="272" y="176" type="line" smooth="yes"/>
      <point x="256" y="176"/>
      <point x="248" y="168"/>
      <point x="248" y="152" type="curve" smooth="yes"/>
      <point x="248" y="104" type="line" smooth="yes"/>
      <point x="248" y="88"/>
      <point x="256" y="80"/>
    </contour>
  </outline>
</glyph>
<glyph name="keheh-ar" format="2">
  <advance width="512"/>
  <unicode hex="06A9"/>
  <outline>
    <contour>
      <point x="32" y="0" type="line"/>
      <point x="424" y="0" type="line"/>
      <point x="472" y="0"/>
      <point x="496" y="24"/>
      <point x="496" y="72" type="curve" smooth="yes"/>
      <point x="496" y="224" type="line" smooth="yes"/>
      <point x="496" y="272"/>
      <point x="472" y="296"/>
      <point x="424" y="296" type="curve" smooth="yes"/>
      <point x="160" y="296" type="line" smooth="yes"/>
      <point x="144" y="296"/>
      <point x="136" y="304"/>
      <point x="136" y="320" type="curve" smooth="yes"/>
      <point x="136" y="409" type="line" smooth="yes"/>
      <point x="136" y="424"/>
      <point x="144" y="432"/>
      <point x="160" y="432" type="curve" smooth="yes"/>
      <point x="282" y="432" type="line"/>
      <point x="290" y="440" type="line"/>
      <point x="290" y="504" type="line"/>
      <point x="282" y="512" type="line"/>
      <point x="136" y="512" type="line" smooth="yes"/>
      <point x="88" y="512"/>
      <point x="64" y="488"/>
      <point x="64" y="440" type="curve" smooth="yes"/>
      <point x="64" y="288" type="line" smooth="yes"/>
      <point x="64" y="240"/>
      <point x="89" y="216"/>
      <point x="136" y="216" type="curve" smooth="yes"/>
      <point x="400" y="216" type="line" smooth="yes"/>
      <point x="416" y="216"/>
      <point x="424" y="208"/>
      <point x="424" y="192" type="curve" smooth="yes"/>
      <point x="424" y="104" type="line" smooth="yes"/>
      <point x="424" y="88"/>
      <point x="416" y="80"/>
      <point x="400" y="80" type="curve" smooth="yes"/>
      <point x="32" y="80" type="line"/>
      <point x="24" y="72" type="line"/>
      <point x="24" y="8" type="line"/>
    </contour>
  </outline>
</glyph>
<glyph name="noonghunna-ar" format="2">
  <advance width="512"/>
  <unicode hex="06BA"/>
  <anchor x="230" y="208" name="top"/>
  <outline>
    <contour>
      <point x="152" y="-208" type="curve" smooth="yes"/>
      <point x="360" y="-208" type="line" smooth="yes"/>
      <point x="424" y="-208"/>
      <point x="440" y="-168"/>
      <point x="440" y="-112" type="curve"/>
      <point x="440" y="200" type="line"/>
      <point x="432" y="208" type="line"/>
      <point x="320" y="208" type="line"/>
      <point x="312" y="200" type="line"/>
      <point x="312" y="-24" type="line" smooth="yes"/>
      <point x="312" y="-56"/>
      <point x="304" y="-64"/>
      <point x="272" y="-64" type="curve" smooth="yes"/>
      <point x="240" y="-64" type="line" smooth="yes"/>
      <point x="208" y="-64"/>
      <point x="200" y="-56"/>
      <point x="200" y="-24" type="curve" smooth="yes"/>
      <point x="200" y="72" type="line"/>
      <point x="192" y="80" type="line"/>
      <point x="80" y="80" type="line"/>
      <point x="72" y="72" type="line"/>
      <point x="72" y="-112" type="line" smooth="yes"/>
      <point x="72" y="-168"/>
      <point x="88" y="-208"/>
    </contour>
  </outline>
</glyph>
<glyph name="quoteright" format="2">
  <advance width="512"/>
  <unicode hex="2019"/>
  <outline>
    <contour>
      <point x="217" y="512" type="line"/>
      <point x="296" y="512" type="line"/>
      <point x="296" y="704" type="line"/>
      <point x="217" y="704" type="line"/>
    </contour>
  </outline>
</glyph>
<glyph name="minus" format="2">
  <advance width="512"/>
  <unicode hex="2212"/>
  <outline>
    <contour>
      <point x="108" y="176" type="line"/>
      <point x="404" y="176" type="line"/>
      <point x="412" y="184" type="line"/>
      <point x="412" y="240" type="line"/>
      <point x="404" y="248" type="line"/>
      <point x="108" y="248" type="line"/>
      <point x="100" y="240" type="line"/>
      <point x="100" y="184" type="line"/>
    </contour>
  </outline>
</glyph>
<glyph name="kaf-ar.init" format="2">
  <advance width="512"/>
  <unicode hex="FEDB"/>
  <outline>
    <contour>
      <point x="24" y="0" type="line"/>
      <point x="424" y="0" type="line"/>
      <point x="472" y="0"/>
      <point x="496" y="24"/>
      <point x="496" y="72" type="curve" smooth="yes"/>
      <point x="496" y="256" type="line" smooth="yes"/>
      <point x="496" y="304"/>
      <point x="472" y="328"/>
      <point x="424" y="328" type="curve" smooth="yes"/>
      <point x="200" y="328" type="line" smooth="yes"/>
      <point x="195" y="328"/>
      <point x="192" y="330"/>
      <point x="192" y="336" type="curve" smooth="yes"/>
      <point x="192" y="360" type="line" smooth="yes"/>
      <point x="192" y="365"/>
      <point x="195" y="368"/>
      <point x="200" y="368" type="curve" smooth="yes"/>
      <point x="282" y="368" type="line"/>
      <point x="290" y="376" type="line"/>
      <point x="290" y="504" type="line"/>
      <point x="282" y="512" type="line"/>
      <point x="136" y="512" type="line" smooth="yes"/>
      <point x="88" y="512"/>
      <point x="64" y="488"/>
      <point x="64" y="440" type="curve" smooth="yes"/>
      <point x="64" y="256" type="line" smooth="yes"/>
      <point x="64" y="208"/>
      <point x="89" y="184"/>
      <point x="136" y="184" type="curve" smooth="yes"/>
      <point x="360" y="184" type="line" smooth="yes"/>
      <point x="366" y="184"/>
      <point x="368" y="179"/>
      <point x="368" y="176" type="curve" smooth="yes"/>
      <point x="368" y="152" type="line" smooth="yes"/>
      <point x="368" y="147"/>
      <point x="365" y="144"/>
      <point x="360" y="144" type="curve" smooth="yes"/>
      <point x="24" y="144" type="line"/>
      <point x="16" y="136" type="line"/>
      <point x="16" y="8" type="line"/>
    </contour>
  </outline>
</glyph>
<glyph name="acutecomb.case" format="2">
  <anchor x="256" y="704" name="_top"/>
  <anchor x="268" y="862" name="top"/>
  <outline>
    <contour>
      <point x="237" y="768" type="line"/>
      <point x="291" y="768" type="line"/>
      <point x="299" y="776" type="line"/>
      <point x="369" y="904" type="line"/>
      <point x="369" y="912" type="line"/>
      <point x="361" y="920" type="line"/>
      <point x="285" y="920" type="line"/>
      <point x="277" y="912" type="line"/>
      <point x="229" y="776" type="line"/>
    </contour>
  </outline>
</glyph>
<glyph name="alefMaksura-ar.fina" format="2">
  <advance width="512"/>
  <anchor x="229" y="-126" name="bottom"/>
  <anchor x="57" y="-8" name="top"/>
  <outline>
    <contour>
      <point x="320" y="0" type="line"/>
      <point x="472" y="0" type="line"/>
      <point x="480" y="8" type="line"/>
      <point x="480" y="71" type="line"/>
      <point x="472" y="80" type="line"/>
      <point x="320" y="80" type="line"/>
      <point x="312" y="72" type="line"/>
      <point x="312" y="8" type="line"/>
    </contour>
    <contour>
      <point x="160" y="-272" type="curve" smooth="yes"/>
      <point x="304" y="-272" type="line" smooth="yes"/>
      <point x="400" y="-272"/>
      <point x="432" y="-240"/>
      <point x="432" y="-144" type="curve" smooth="yes"/>
      <point x="432" y="0" type="line"/>
      <point x="424" y="0" type="line"/>
      <point x="368" y="0" type="line"/>
      <point x="360" y="0" type="line"/>
      <point x="360" y="-128" type="line" smooth="yes"/>
      <point x="360" y="-176"/>
      <point x="344" y="-192"/>
      <point x="296" y="-192" type="curve" smooth="yes"/>
      <point x="168" y="-192" type="line" smooth="yes"/>
      <point x="120" y="-192"/>
      <point x="104" y="-176"/>
      <point x="104" y="-128" type="curve" smooth="yes"/>
      <point x="104" y="-8" type="line"/>
      <point x="96" y="0" type="line"/>
      <point x="40" y="0" type="line"/>
      <point x="32" y="-8" type="line"/>
      <point x="32" y="-144" type="line" smooth="yes"/>
      <point x="32" y="-240"/>
      <point x="64" y="-272"/>
    </contour>
  </outline>
</glyph>
<glyph name="behDotless-ar.fina" format="2">
  <advance width="512"/>
  <anchor x="248" y="0" name="bottom"/>
  <anchor x="248" y="247" name="top"/>
  <outline>
    <contour>
      <point x="160" y="0" type="curve" smooth="yes"/>
      <point x="472" y="0" type="line"/>
      <point x="480" y="8" type="line"/>
      <point x="480" y="72" type="line"/>
      <point x="472" y="80" type="line"/>
      <point x="440" y="80" type="line"/>
      <point x="432" y="88" type="line"/>
      <point x="432" y="328" type="line"/>
      <point x="424" y="336" type="line"/>
      <point x="368" y="336" type="line"/>
      <point x="360" y="328" type="line"/>
      <point x="360" y="88" type="line"/>
      <point x="352" y="80" type="line"/>
      <point x="168" y="80" type="line" smooth="yes"/>
      <point x="120" y="80"/>
      <point x="104" y="96"/>
      <point x="104" y="144" type="curve" smooth="yes"/>
      <point x="104" y="328" type="line"/>
      <point x="96" y="336" type="line"/>
      <point x="40" y="336" type="line"/>
      <point x="32" y="328" type="line"/>
      <point x="32" y="128" type="line" smooth="yes"/>
      <point x="32" y="32"/>
      <point x="64" y="0"/>
    </contour>
  </outline>
</glyph>
<glyph name="behDotless-ar.init" format="2">
  <advance width="512"/>
  <anchor x="176" y="0" name="bottom"/>
  <anchor x="333" y="232" name="top"/>
  <outline>
    <contour>
      <point x="24" y="0" type="line"/>
      <point x="288" y="0" type="line" smooth="yes"/>
      <point x="352" y="0"/>
      <point x="368" y="40"/>
      <point x="368" y="96" type="curve" smooth="yes"/>
      <point x="368" y="224" type="line"/>
      <point x="360" y="232" type="line"/>
      <point x="304" y="232" type="line"/>
      <point x="296" y="224" type="line"/>
      <point x="296" y="120" type="line" smooth="yes"/>
      <point x="296" y="88"/>
      <point x="288" y="80"/>
      <point x="256" y="80" type="curve" smooth="yes"/>
      <point x="24" y="80" type="line"/>
      <point x="16" y="72" type="line"/>
      <point x="16" y="8" type="line"/>
    </contour>
  </outline>
</glyph>
<glyph name="behDotless-ar.medi" format="2">
  <advance width="512"/>
  <anchor x="261" y="0" name="bottom"/>
  <anchor x="261" y="304" name="top"/>
  <outline>
    <contour>
      <point x="220" y="304" type="line"/>
      <point x="220" y="112" type="line" smooth="yes"/>
      <point x="220" y="88"/>
      <point x="212" y="80"/>
      <point x="188" y="80" type="curve" smooth="yes"/>
      <point x="40" y="80" type="line"/>
      <point x="32" y="72" type="line"/>
      <point x="32" y="8" type="line"/>
      <point x="40" y="0" type="line"/>
      <point x="188" y="0" type="line" smooth="yes"/>
      <point x="220" y="0"/>
      <point x="240" y="16"/>
      <point x="248" y="32" type="curve"/>
      <point x="264" y="32" type="line"/>
      <point x="272" y="16"/>
      <point x="292" y="0"/>
      <point x="324" y="0" type="curve" smooth="yes"/>
      <point x="472" y="0" type="line"/>
      <point x="480" y="8" type="line"/>
      <point x="480" y="72" type="line"/>
      <point x="472" y="80" type="line"/>
      <point x="324" y="80" type="line" smooth="yes"/>
      <point x="300" y="80"/>
      <point x="292" y="88"/>
      <point x="292" y="112" type="curve" smooth="yes"/>
      <point x="292" y="304" type="line"/>
      <point x="284" y="312" type="line"/>
      <point x="228" y="312" type="line"/>
    </contour>
  </outline>
</glyph>
<glyph name="circumflexcomb.case" format="2">
  <anchor x="256" y="704" name="_top"/>
  <anchor x="256" y="920" name="top"/>
  <outline>
    <contour>
      <point x="136" y="768" type="line"/>
      <point x="160" y="768" type="line"/>
      <point x="176" y="776" type="line"/>
      <point x="248" y="856" type="line"/>
      <point x="264" y="856" type="line"/>
      <point x="336" y="776" type="line"/>
      <point x="352" y="768" type="line"/>
      <point x="376" y="768" type="line"/>
      <point x="384" y="776" type="line"/>
      <point x="384" y="784" type="line"/>
      <point x="304" y="912" type="line"/>
      <point x="296" y="920" type="line"/>
      <point x="216" y="920" type="line"/>
      <point x="208" y="912" type="line"/>
      <point x="128" y="784" type="line"/>
      <point x="128" y="776" type="line"/>
    </contour>
  </outline>
</glyph>
<glyph name="dal-ar.fina" format="2">
  <advance width="512"/>
  <anchor x="248" y="288" name="top"/>
  <outline>
    <contour>
      <point x="472" y="0" type="line"/>
      <point x="480" y="8" type="line"/>
      <point x="480" y="72" type="line"/>
      <point x="472" y="80" type="line"/>
      <point x="336" y="80" type="line"/>
      <point x="336" y="160" type="line" smooth="yes"/>
      <point x="336" y="256"/>
      <point x="304" y="288"/>
      <point x="208" y="288" type="curve" smooth="yes"/>
      <point x="136" y="288" type="line"/>
      <point x="128" y="280" type="line"/>
      <point x="128" y="216" type="line"/>
      <point x="136" y="208" type="line"/>
      <point x="200" y="208" type="line" smooth="yes"/>
      <point x="248" y="208"/>
      <point x="264" y="192"/>
      <point x="264" y="144" type="curve" smooth="yes"/>
      <point x="264" y="80" type="line"/>
      <point x="72" y="80" type="line"/>
      <point x="64" y="72" type="line"/>
      <point x="64" y="8" type="line"/>
      <point x="72" y="0" type="line"/>
    </contour>
  </outline>
</glyph>
<glyph name="dieresiscomb.case" format="2">
  <anchor x="256" y="704" name="_top"/>
  <anchor x="256" y="866" name="top"/>
  <outline>
    <contour>
      <point x="128" y="768" type="line"/>
      <point x="200" y="768" type="line"/>
      <point x="208" y="776" type="line"/>
      <point x="208" y="848" type="line"/>
      <point x="200" y="856" type="line"/>
      <point x="128" y="856" type="line"/>
      <point x="120" y="848" type="line"/>
      <point x="120" y="776" type="line"/>
    </contour>
    <contour>
      <point x="312" y="768" type="line"/>
      <point x="384" y="768" type="line"/>
      <point x="392" y="776" type="line"/>
      <point x="392" y="848" type="line"/>
      <point x="384" y="856" type="line"/>
      <point x="312" y="856" type="line"/>
      <point x="304" y="848" type="line"/>
      <point x="304" y="776" type="line"/>
    </contour>
  </outline>
</glyph>
<glyph name="dotabove-ar" format="2">
  <anchor x="72" y="0" name="_top"/>
  <outline>
    <contour>
      <point x="72" y="48" type="curve" smooth="yes"/>
      <point x="112" y="48"/>
      <point x="144" y="80"/>
      <point x="144" y="120" type="curve" smooth="yes"/>
      <point x="144" y="160"/>
      <point x="112" y="192"/>
      <point x="72" y="192" type="curve" smooth="yes"/>
      <point x="32" y="192"/>
      <point x="0" y="160"/>
      <point x="0" y="120" type="curve" smooth="yes"/>
      <point x="0" y="80"/>
      <point x="32" y="48"/>
    </contour>
  </outline>
</glyph>
<glyph name="dotbelow-ar" format="2">
  <anchor x="85" y="0" name="_bottom"/>
  <outline>
    <contour>
      <point x="86" y="-220" type="curve" smooth="yes"/>
      <point x="133" y="-220"/>
      <point x="171" y="-181"/>
      <point x="171" y="-134" type="curve" smooth="yes"/>
      <point x="171" y="-87"/>
      <point x="133" y="-51"/>
      <point x="86" y="-51" type="curve" smooth="yes"/>
      <point x="39" y="-51"/>
      <point x="0" y="-87"/>
      <point x="0" y="-134" type="curve" smooth="yes"/>
      <point x="0" y="-181"/>
      <point x="39" y="-220"/>
    </contour>
  </outline>
</glyph>
<glyph name="dotcenter-ar" format="2">
  <anchor x="256" y="256" name="_bottom"/>
  <outline>
    <contour>
      <point x="256" y="67" type="curve" smooth="yes"/>
      <point x="289" y="67"/>
      <point x="316" y="94"/>
      <point x="316" y="127" type="curve" smooth="yes"/>
      <point x="316" y="160"/>
      <point x="289" y="185"/>
      <point x="256" y="185" type="curve" smooth="yes"/>
      <point x="223" y="185"/>
      <point x="196" y="160"/>
      <point x="196" y="127" type="curve" smooth="yes"/>
      <point x="196" y="94"/>
      <point x="223" y="67"/>
    </contour>
  </outline>
</glyph>
<glyph name="fehDotless-ar.fina" format="2">
  <advance width="512"/>
  <anchor x="352" y="416" name="top"/>
  <outline>
    <contour>
      <point x="160" y="0" type="curve" smooth="yes"/>
      <point x="408" y="0" type="line" smooth="yes"/>
      <point x="456" y="0"/>
      <point x="480" y="24"/>
      <point x="480" y="72" type="curve" smooth="yes"/>
      <point x="480" y="344" type="line" smooth="yes"/>
      <point x="480" y="392"/>
      <point x="456" y="416"/>
      <point x="408" y="416" type="curve" smooth="yes"/>
      <point x="296" y="416" type="line" smooth="yes"/>
      <point x="248" y="416"/>
      <point x="224" y="392"/>
      <point x="224" y="344" type="curve" smooth="yes"/>
      <point x="224" y="232" type="line" smooth="yes"/>
      <point x="224" y="184"/>
      <point x="248" y="160"/>
      <point x="296" y="160" type="curve" smooth="yes"/>
      <point x="400" y="160" type="line"/>
      <point x="408" y="152" type="line"/>
      <point x="408" y="104" type="line" smooth="yes"/>
      <point x="408" y="88"/>
      <point x="400" y="80"/>
      <point x="384" y="80" type="curve" smooth="yes"/>
      <point x="168" y="80" type="line" smooth="yes"/>
      <point x="120" y="80"/>
      <point x="104" y="96"/>
      <point x="104" y="144" type="curve" smooth="yes"/>
      <point x="104" y="200" type="line"/>
      <point x="96" y="208" type="line"/>
      <point x="40" y="208" type="line"/>
      <point x="32" y="200" type="line"/>
      <point x="32" y="128" type="line" smooth="yes"/>
      <point x="32" y="32"/>
      <point x="64" y="0"/>
    </contour>
    <contour>
      <point x="296" y="248" type="curve" smooth="yes"/>
      <point x="296" y="312" type="line" smooth="yes"/>
      <point x="296" y="328"/>
      <point x="304" y="336"/>
      <point x="320" y="336" type="curve" smooth="yes"/>
      <point x="384" y="336" type="line" smooth="yes"/>
      <point x="400" y="336"/>
      <point x="408" y="328"/>
      <point x="408" y="312" type="curve" smooth="yes"/>
      <point x="408" y="232" type="line"/>
      <point x="400" y="224" type="line"/>
      <point x="320" y="224" type="line" smooth="yes"/>
      <point x="304" y="224"/>
      <point x="296" y="232"/>
    </contour>
  </outline>
</glyph>
<glyph name="fehDotless-ar.medi" format="2">
  <advance width="512"/>
  <anchor x="256" y="336" name="top"/>
  <outline>
    <contour>
      <point x="40" y="0" type="line"/>
      <point x="472" y="0" type="line"/>
      <point x="480" y="8" type="line"/>
      <point x="480" y="72" type="line"/>
      <point x="472" y="80" type="line"/>
      <point x="408" y="80" type="line"/>
      <point x="400" y="88" type="line"/>
      <point x="400" y="240" type="line" smooth="yes"/>
      <point x="400" y="304"/>
      <point x="368" y="336"/>
      <point x="304" y="336" type="curve" smooth="yes"/>
      <point x="208" y="336" type="line" smooth="yes"/>
      <point x="144" y="336"/>
      <point x="112" y="304"/>
      <point x="112" y="240" type="curve" smooth="yes"/>
      <point x="112" y="88" type="line"/>
      <point x="104" y="80" type="line"/>
      <point x="40" y="80" type="line"/>
      <point x="32" y="72" type="line"/>
      <point x="32" y="8" type="line"/>
    </contour>
    <contour>
      <point x="192" y="80" type="line"/>
      <point x="184" y="88" type="line"/>
      <point x="184" y="224" type="line" smooth="yes"/>
      <point x="184" y="248"/>
      <point x="192" y="256"/>
      <point x="216" y="256" type="curve" smooth="yes"/>
      <point x="296" y="256" type="line" smooth="yes"/>
      <point x="320" y="256"/>
      <point x="328" y="248"/>
      <point x="328" y="224" type="curve" smooth="yes"/>
      <point x="328" y="88" type="line"/>
      <point x="320" y="80" type="line"/>
    </contour>
  </outline>
</glyph>
<glyph name="hah-ar.fina" format="2">
  <advance width="512"/>
  <anchor x="296" y="0" name="bottom"/>
  <anchor x="255" y="336" name="top"/>
  <outline>
    <contour>
      <point x="168" y="0" type="curve" smooth="yes"/>
      <point x="472" y="0" type="line"/>
      <point x="480" y="8" type="line"/>
      <point x="480" y="71" type="line"/>
      <point x="472" y="80" type="line"/>
      <point x="448" y="80" type="line"/>
      <point x="448" y="208" type="line" smooth="yes"/>
      <point x="448" y="304"/>
      <point x="416" y="336"/>
      <point x="320" y="336" type="curve" smooth="yes"/>
      <point x="136" y="336" type="line"/>
      <point x="128" y="328" type="line"/>
      <point x="128" y="264" type="line"/>
      <point x="136" y="256" type="line"/>
      <point x="312" y="256" type="line" smooth="yes"/>
      <point x="360" y="256"/>
      <point x="376" y="240"/>
      <point x="376" y="192" type="curve" smooth="yes"/>
      <point x="376" y="88" type="line"/>
      <point x="368" y="80" type="line"/>
      <point x="160" y="80" type="line" smooth="yes"/>
      <point x="96" y="80"/>
      <point x="64" y="48"/>
      <point x="64" y="-16" type="curve" smooth="yes"/>
      <point x="64" y="-280" type="line" smooth="yes"/>
      <point x="64" y="-376"/>
      <point x="96" y="-408"/>
      <point x="192" y="-408" type="curve" smooth="yes"/>
      <point x="440" y="-408" type="line"/>
      <point x="448" y="-400" type="line"/>
      <point x="448" y="-336" type="line"/>
      <point x="440" y="-328" type="line"/>
      <point x="200" y="-328" type="line" smooth="yes"/>
      <point x="152" y="-328"/>
      <point x="136" y="-312"/>
      <point x="136" y="-264" type="curve" smooth="yes"/>
      <point x="136" y="-32" type="line" smooth="yes"/>
      <point x="136" y="-8"/>
      <point x="144" y="0"/>
    </contour>
  </outline>
</glyph>
<glyph name="hah-ar.init" format="2">
  <advance width="512"/>
  <anchor x="288" y="0" name="bottom"/>
  <anchor x="283" y="288" name="top"/>
  <outline>
    <contour>
      <point x="24" y="0" type="line"/>
      <point x="488" y="0" type="line"/>
      <point x="496" y="8" type="line"/>
      <point x="496" y="184" type="line" smooth="yes"/>
      <point x="496" y="264"/>
      <point x="472" y="288"/>
      <point x="392" y="288" type="curve" smooth="yes"/>
      <point x="120" y="288" type="line"/>
      <point x="112" y="280" type="line"/>
      <point x="112" y="216" type="line"/>
      <point x="120" y="208" type="line"/>
      <point x="376" y="208" type="line" smooth="yes"/>
      <point x="408" y="208"/>
      <point x="424" y="200"/>
      <point x="424" y="168" type="curve" smooth="yes"/>
      <point x="424" y="88" type="line"/>
      <point x="416" y="80" type="line"/>
      <point x="24" y="80" type="line"/>
      <point x="16" y="72" type="line"/>
      <point x="16" y="8" type="line"/>
    </contour>
  </outline>
</glyph>
<glyph name="hah-ar.medi" format="2">
  <advance width="512"/>
  <anchor x="288" y="0" name="bottom"/>
  <anchor x="283" y="288" name="top"/>
  <outline>
    <contour>
      <point x="24" y="0" type="line"/>
      <point x="488" y="0" type="line"/>
      <point x="496" y="8" type="line"/>
      <point x="496" y="71" type="line"/>
      <point x="488" y="80" type="line"/>
      <point x="456" y="80" type="line"/>
      <point x="456" y="184" type="line" smooth="yes"/>
      <point x="456" y="264"/>
      <point x="432" y="288"/>
      <point x="352" y="288" type="curve" smooth="yes"/>
      <point x="120" y="288" type="line"/>
      <point x="112" y="280" type="line"/>
      <point x="112" y="216" type="line"/>
      <point x="120" y="208" type="line"/>
      <point x="336" y="208" type="line" smooth="yes"/>
      <point x="368" y="208"/>
      <point x="384" y="200"/>
      <point x="384" y="168" type="curve" smooth="yes"/>
      <point x="384" y="88" type="line"/>
      <point x="376" y="80" type="line"/>
      <point x="24" y="80" type="line"/>
      <point x="16" y="72" type="line"/>
      <point x="16" y="8" type="line"/>
    </contour>
  </outline>
</glyph>
<glyph name="heh-ar.init" format="2">
  <advance width="512"/>
  <anchor x="276" y="416" name="top"/>
  <outline>
    <contour>
      <point x="312" y="96" type="curve" smooth="yes"/>
      <point x="312" y="136" type="line"/>
      <point x="320" y="144" type="line"/>
      <point x="384" y="144" type="line" smooth="yes"/>
      <point x="448" y="144"/>
      <point x="480" y="176"/>
      <point x="480" y="240" type="curve" smooth="yes"/>
      <point x="480" y="320" type="line" smooth="yes"/>
      <point x="480" y="384"/>
      <point x="448" y="416"/>
      <point x="384" y="416" type="curve" smooth="yes"/>
      <point x="168" y="416" type="line" smooth="yes"/>
      <point x="104" y="416"/>
      <point x="72" y="384"/>
      <point x="72" y="320" type="curve" smooth="yes"/>
      <point x="72" y="240" type="line" smooth="yes"/>
      <point x="72" y="176"/>
      <point x="104" y="144"/>
      <point x="168" y="144" type="curve" smooth="yes"/>
      <point x="232" y="144" type="line"/>
      <point x="240" y="136" type="line"/>
      <point x="240" y="120" type="line" smooth="yes"/>
      <point x="240" y="88"/>
      <point x="232" y="80"/>
      <point x="200" y="80" type="curve" smooth="yes"/>
      <point x="32" y="80" type="line"/>
      <point x="24" y="72" type="line"/>
      <point x="24" y="8" type="line"/>
      <point x="32" y="0" type="line"/>
      <point x="232" y="0" type="line" smooth="yes"/>
      <point x="296" y="0"/>
      <point x="312" y="40"/>
    </contour>
    <contour>
      <point x="144" y="256" type="curve" smooth="yes"/>
      <point x="144" y="304" type="line" smooth="yes"/>
      <point x="144" y="328"/>
      <point x="152" y="336"/>
      <point x="176" y="336" type="curve" smooth="yes"/>
      <point x="232" y="336" type="line"/>
      <point x="240" y="328" type="line"/>
      <point x="240" y="232" type="line"/>
      <point x="232" y="224" type="line"/>
      <point x="176" y="224" type="line" smooth="yes"/>
      <point x="152" y="224"/>
      <point x="144" y="232"/>
    </contour>
    <contour>
      <point x="312" y="232" type="line"/>
      <point x="312" y="328" type="line"/>
      <point x="320" y="336" type="line"/>
      <point x="376" y="336" type="line" smooth="yes"/>
      <point x="400" y="336"/>
      <point x="408" y="328"/>
      <point x="408" y="304" type="curve" smooth="yes"/>
      <point x="408" y="256" type="line" smooth="yes"/>
      <point x="408" y="232"/>
      <point x="400" y="224"/>
      <point x="376" y="224" type="curve" smooth="yes"/>
      <point x="320" y="224" type="line"/>
    </contour>
  </outline>
</glyph>
<glyph name="heh-ar.medi" format="2">
  <advance width="512"/>
  <outline>
    <contour>
      <point x="208" y="-256" type="curve" smooth="yes"/>
      <point x="304" y="-256" type="line" smooth="yes"/>
      <point x="368" y="-256"/>
      <point x="400" y="-224"/>
      <point x="400" y="-160" type="curve" smooth="yes"/>
      <point x="400" y="-8" type="line"/>
      <point x="408" y="0" type="line"/>
      <point x="472" y="0" type="line"/>
      <point x="480" y="8" type="line"/>
      <point x="480" y="72" type="line"/>
      <point x="472" y="80" type="line"/>
      <point x="408" y="80" type="line"/>
      <point x="400" y="88" type="line"/>
      <point x="400" y="240" type="line" smooth="yes"/>
      <point x="400" y="304"/>
      <point x="368" y="336"/>
      <point x="304" y="336" type="curve" smooth="yes"/>
      <point x="208" y="336" type="line" smooth="yes"/>
      <point x="144" y="336"/>
      <point x="112" y="304"/>
      <point x="112" y="240" type="curve" smooth="yes"/>
      <point x="112" y="88" type="line"/>
      <point x="104" y="80" type="line"/>
      <point x="40" y="80" type="line"/>
      <point x="32" y="72" type="line"/>
      <point x="32" y="8" type="line"/>
      <point x="40" y="0" type="line"/>
      <point x="104" y="0" type="line"/>
      <point x="112" y="-8" type="line"/>
      <point x="112" y="-160" type="line" smooth="yes"/>
      <point x="112" y="-224"/>
      <point x="144" y="-256"/>
    </contour>
    <contour>
      <point x="216" y="-176" type="line" smooth="yes"/>
      <point x="192" y="-176"/>
      <point x="184" y="-168"/>
      <point x="184" y="-144" type="curve" smooth="yes"/>
      <point x="184" y="-8" type="line"/>
      <point x="192" y="0" type="line"/>
      <point x="320" y="0" type="line"/>
      <point x="328" y="-8" type="line"/>
      <point x="328" y="-144" type="line" smooth="yes"/>
      <point x="328" y="-168"/>
      <point x="320" y="-176"/>
      <point x="296" y="-176" type="curve" smooth="yes"/>
    </contour>
    <contour>
      <point x="192" y="80" type="line"/>
      <point x="184" y="88" type="line"/>
      <point x="184" y="224" type="line" smooth="yes"/>
      <point x="184" y="248"/>
      <point x="192" y="256"/>
      <point x="216" y="256" type="curve" smooth="yes"/>
      <point x="296" y="256" type="line" smooth="yes"/>
      <point x="320" y="256"/>
      <point x="328" y="248"/>
      <point x="328" y="224" type="curve" smooth="yes"/>
      <point x="328" y="88" type="line"/>
      <point x="320" y="80" type="line"/>
    </contour>
  </outline>
</glyph>
<glyph name="lam-ar.fina" format="2">
  <advance width="512"/>
  <outline>
    <contour>
      <point x="112" y="-208" type="curve" smooth="yes"/>
      <point x="328" y="-208" type="line" smooth="yes"/>
      <point x="392" y="-208"/>
      <point x="408" y="-168"/>
      <point x="408" y="-112" type="curve" smooth="yes"/>
      <point x="408" y="-8" type="line"/>
      <point x="416" y="0" type="line"/>
      <point x="480" y="0" type="line"/>
      <point x="488" y="8" type="line"/>
      <point x="488" y="72" type="line"/>
      <point x="480" y="80" type="line"/>
      <point x="416" y="80" type="line"/>
      <point x="408" y="88" type="line"/>
      <point x="408" y="616" type="line"/>
      <point x="400" y="624" type="line"/>
      <point x="344" y="624" type="line"/>
      <point x="336" y="616" type="line"/>
      <point x="336" y="-88" type="line" smooth="yes"/>
      <point x="336" y="-120"/>
      <point x="328" y="-128"/>
      <point x="296" y="-128" type="curve" smooth="yes"/>
      <point x="144" y="-128" type="line" smooth="yes"/>
      <point x="112" y="-128"/>
      <point x="104" y="-120"/>
      <point x="104" y="-88" type="curve" smooth="yes"/>
      <point x="104" y="-56" type="line"/>
      <point x="96" y="-48" type="line"/>
      <point x="40" y="-48" type="line"/>
      <point x="32" y="-56" type="line"/>
      <point x="32" y="-112" type="line" smooth="yes"/>
      <point x="32" y="-168"/>
      <point x="48" y="-208"/>
    </contour>
  </outline>
</glyph>
<glyph name="meem-ar.fina" format="2">
  <advance width="512"/>
  <outline>
    <contour>
      <point x="288" y="-80" type="curve" smooth="yes"/>
      <point x="349" y="-80"/>
      <point x="402" y="-48"/>
      <point x="431" y="0" type="curve"/>
      <point x="472" y="0" type="line"/>
      <point x="480" y="8" type="line"/>
      <point x="480" y="71" type="line"/>
      <point x="472" y="80" type="line"/>
      <point x="464" y="80" type="line"/>
      <point x="456" y="88" type="line"/>
      <point x="456" y="181"/>
      <point x="381" y="256"/>
      <point x="288" y="256" type="curve" smooth="yes"/>
      <point x="195" y="256"/>
      <point x="120" y="181"/>
      <point x="120" y="88" type="curve"/>
      <point x="112" y="80" type="line"/>
      <point x="96" y="80" type="line" smooth="yes"/>
      <point x="32" y="80"/>
      <point x="0" y="48"/>
      <point x="0" y="-16" type="curve" smooth="yes"/>
      <point x="0" y="-258" type="line"/>
      <point x="8" y="-266" type="line"/>
      <point x="64" y="-266" type="line"/>
      <point x="72" y="-258" type="line"/>
      <point x="72" y="-32" type="line" smooth="yes"/>
      <point x="72" y="-8"/>
      <point x="80" y="0"/>
      <point x="104" y="0" type="curve" smooth="yes"/>
      <point x="145" y="0" type="line"/>
      <point x="174" y="-48"/>
      <point x="227" y="-80"/>
    </contour>
    <contour>
      <point x="196" y="88" type="curve" smooth="yes"/>
      <point x="196" y="135"/>
      <point x="234" y="176"/>
      <point x="288" y="176" type="curve" smooth="yes"/>
      <point x="343" y="176"/>
      <point x="380" y="135"/>
      <point x="380" y="88" type="curve" smooth="yes"/>
      <point x="380" y="42"/>
      <point x="343" y="0"/>
      <point x="288" y="0" type="curve" smooth="yes"/>
      <point x="234" y="0"/>
      <point x="196" y="42"/>
    </contour>
  </outline>
</glyph>
<glyph name="meem-ar.medi" format="2">
  <advance width="512"/>
  <outline>
    <contour>
      <point x="256" y="-80" type="curve" smooth="yes"/>
      <point x="317" y="-80"/>
      <point x="370" y="-48"/>
      <point x="399" y="0" type="curve"/>
      <point x="480" y="0" type="line"/>
      <point x="488" y="8" type="line"/>
      <point x="488" y="71" type="line"/>
      <point x="480" y="80" type="line"/>
      <point x="432" y="80" type="line"/>
      <point x="424" y="88" type="line"/>
      <point x="424" y="181"/>
      <point x="349" y="256"/>
      <point x="256" y="256" type="curve" smooth="yes"/>
      <point x="163" y="256"/>
      <point x="88" y="181"/>
      <point x="88" y="88" type="curve"/>
      <point x="80" y="80" type="line"/>
      <point x="40" y="80" type="line"/>
      <point x="32" y="72" type="line"/>
      <point x="32" y="8" type="line"/>
      <point x="40" y="0" type="line"/>
      <point x="113" y="0" type="line"/>
      <point x="113" y="-1" type="line"/>
      <point x="143" y="-49"/>
      <point x="196" y="-80"/>
    </contour>
    <contour>
      <point x="164" y="88" type="curve" smooth="yes"/>
      <point x="164" y="135"/>
      <point x="202" y="176"/>
      <point x="256" y="176" type="curve" smooth="yes"/>
      <point x="311" y="176"/>
      <point x="348" y="135"/>
      <point x="348" y="88" type="curve" smooth="yes"/>
      <point x="348" y="42"/>
      <point x="311" y="0"/>
      <point x="256" y="0" type="curve" smooth="yes"/>
      <point x="202" y="0"/>
      <point x="164" y="42"/>
    </contour>
  </outline>
</glyph>
<glyph name="noonghunna-ar.fina" format="2">
  <advance width="512"/>
  <anchor x="246" y="208" name="top"/>
  <outline>
    <contour>
      <point x="120" y="-208" type="curve" smooth="yes"/>
      <point x="352" y="-208" type="line" smooth="yes"/>
      <point x="416" y="-208"/>
      <point x="432" y="-168"/>
      <point x="432" y="-112" type="curve" smooth="yes"/>
      <point x="432" y="-8" type="line"/>
      <point x="440" y="0" type="line"/>
      <point x="488" y="0" type="line"/>
      <point x="496" y="8" type="line"/>
      <point x="496" y="136" type="line"/>
      <point x="488" y="144" type="line"/>
      <point x="440" y="144" type="line"/>
      <point x="432" y="152" type="line"/>
      <point x="432" y="200" type="line"/>
      <point x="424" y="208" type="line"/>
      <point x="312" y="208" type="line"/>
      <point x="304" y="200" type="line"/>
      <point x="304" y="-24" type="line" smooth="yes"/>
      <point x="304" y="-56"/>
      <point x="296" y="-64"/>
      <point x="264" y="-64" type="curve" smooth="yes"/>
      <point x="208" y="-64" type="line" smooth="yes"/>
      <point x="176" y="-64"/>
      <point x="168" y="-56"/>
      <point x="168" y="-24" type="curve" smooth="yes"/>
      <point x="168" y="72" type="line"/>
      <point x="160" y="80" type="line"/>
      <point x="48" y="80" type="line"/>
      <point x="40" y="72" type="line"/>
      <point x="40" y="-112" type="line" smooth="yes"/>
      <point x="40" y="-168"/>
      <point x="56" y="-208"/>
    </contour>
  </outline>
</glyph>
<glyph name="reh-ar.fina" format="2">
  <advance width="512"/>
  <anchor x="196" y="192" name="top"/>
  <outline>
    <contour>
      <point x="8" y="-256" type="line"/>
      <point x="104" y="-256" type="line" smooth="yes"/>
      <point x="200" y="-256"/>
      <point x="232" y="-224"/>
      <point x="232" y="-128" type="curve" smooth="yes"/>
      <point x="232" y="-8" type="line"/>
      <point x="240" y="0" type="line"/>
      <point x="472" y="0" type="line"/>
      <point x="480" y="8" type="line"/>
      <point x="480" y="71" type="line"/>
      <point x="472" y="80" type="line"/>
      <point x="240" y="80" type="line"/>
      <point x="232" y="88" type="line"/>
      <point x="232" y="184" type="line"/>
      <point x="224" y="192" type="line"/>
      <point x="168" y="192" type="line"/>
      <point x="160" y="184" type="line"/>
      <point x="160" y="-112" type="line" smooth="yes"/>
      <point x="160" y="-160"/>
      <point x="144" y="-176"/>
      <point x="96" y="-176" type="curve" smooth="yes"/>
      <point x="8" y="-176" type="line"/>
      <point x="0" y="-184" type="line"/>
      <point x="0" y="-248" type="line"/>
    </contour>
  </outline>
</glyph>
<glyph name="seen-ar.init" format="2">
  <advance width="512"/>
  <anchor x="295" y="0" name="bottom"/>
  <anchor x="291" y="232" name="top"/>
  <outline>
    <contour>
      <point x="24" y="0" type="line"/>
      <point x="416" y="0" type="line" smooth="yes"/>
      <point x="463" y="0"/>
      <point x="480" y="19"/>
      <point x="480" y="64" type="curve" smooth="yes"/>
      <point x="480" y="280" type="line"/>
      <point x="472" y="288" type="line"/>
      <point x="416" y="288" type="line"/>
      <point x="408" y="280" type="line"/>
      <point x="408" y="104" type="line" smooth="yes"/>
      <point x="408" y="85"/>
      <point x="400" y="80"/>
      <point x="384" y="80" type="curve" smooth="yes"/>
      <point x="320" y="80" type="line"/>
      <point x="312" y="88" type="line"/>
      <point x="312" y="280" type="line"/>
      <point x="304" y="288" type="line"/>
      <point x="248" y="288" type="line"/>
      <point x="240" y="280" type="line"/>
      <point x="240" y="88" type="line"/>
      <point x="232" y="80" type="line"/>
      <point x="152" y="80" type="line"/>
      <point x="144" y="88" type="line"/>
      <point x="144" y="280" type="line"/>
      <point x="136" y="288" type="line"/>
      <point x="80" y="288" type="line"/>
      <point x="72" y="280" type="line"/>
      <point x="72" y="88" type="line"/>
      <point x="64" y="80" type="line"/>
      <point x="24" y="80" type="line"/>
      <point x="16" y="72" type="line"/>
      <point x="16" y="8" type="line"/>
    </contour>
  </outline>
</glyph>
<glyph name="seen-ar.medi" format="2">
  <advance width="512"/>
  <anchor x="256" y="0" name="bottom"/>
  <anchor x="256" y="247" name="top"/>
  <outline>
    <contour>
      <point x="24" y="0" type="line"/>
      <point x="488" y="0" type="line"/>
      <point x="496" y="8" type="line"/>
      <point x="496" y="72" type="line"/>
      <point x="488" y="80" type="line"/>
      <point x="464" y="80" type="line"/>
      <point x="456" y="88" type="line"/>
      <point x="456" y="208" type="line"/>
      <point x="448" y="216" type="line"/>
      <point x="384" y="216" type="line"/>
      <point x="376" y="208" type="line"/>
      <point x="376" y="88" type="line"/>
      <point x="368" y="80" type="line"/>
      <point x="304" y="80" type="line"/>
      <point x="296" y="88" type="line"/>
      <point x="296" y="208" type="line"/>
      <point x="288" y="216" type="line"/>
      <point x="224" y="216" type="line"/>
      <point x="216" y="208" type="line"/>
      <point x="216" y="88" type="line"/>
      <point x="208" y="80" type="line"/>
      <point x="144" y="80" type="line"/>
      <point x="136" y="88" type="line"/>
      <point x="136" y="208" type="line"/>
      <point x="128" y="216" type="line"/>
      <point x="64" y="216" type="line"/>
      <point x="56" y="208" type="line"/>
      <point x="56" y="88" type="line"/>
      <point x="48" y="80" type="line"/>
      <point x="24" y="80" type="line"/>
      <point x="16" y="72" type="line"/>
      <point x="16" y="8" type="line"/>
    </contour>
  </outline>
</glyph>
<glyph name="threedotsupabove-ar" format="2">
  <anchor x="156" y="258" name="_top"/>
  <outline>
    <contour>
      <point x="60" y="291" type="curve" smooth="yes"/>
      <point x="93" y="291"/>
      <point x="120" y="318"/>
      <point x="120" y="351" type="curve" smooth="yes"/>
      <point x="120" y="384"/>
      <point x="93" y="409"/>
      <point x="60" y="409" type="curve" smooth="yes"/>
      <point x="27" y="409"/>
      <point x="0" y="384"/>
      <point x="0" y="351" type="curve" smooth="yes"/>
      <point x="0" y="318"/>
      <point x="27" y="291"/>
    </contour>
    <contour>
      <point x="252" y="291" type="curve" smooth="yes"/>
      <point x="285" y="291"/>
      <point x="312" y="318"/>
      <point x="312" y="351" type="curve" smooth="yes"/>
      <point x="312" y="384"/>
      <point x="285" y="409"/>
      <point x="252" y="409" type="curve" smooth="yes"/>
      <point x="219" y="409"/>
      <point x="192" y="384"/>
      <point x="192" y="351" type="curve" smooth="yes"/>
      <point x="192" y="318"/>
      <point x="219" y="291"/>
    </contour>
    <contour>
      <point x="157" y="439" type="curve" smooth="yes"/>
      <point x="190" y="439"/>
      <point x="217" y="466"/>
      <point x="217" y="499" type="curve" smooth="yes"/>
      <point x="217" y="532"/>
      <point x="190" y="557"/>
      <point x="157" y="557" type="curve" smooth="yes"/>
      <point x="124" y="557"/>
      <point x="97" y="532"/>
      <point x="97" y="499" type="curve" smooth="yes"/>
      <point x="97" y="466"/>
      <point x="124" y="439"/>
    </contour>
  </outline>
</glyph>
<glyph name="twodotshorizontalabove-ar" format="2">
  <anchor x="156" y="258" name="_top"/>
  <outline>
    <contour>
      <point x="60" y="291" type="curve" smooth="yes"/>
      <point x="93" y="291"/>
      <point x="120" y="318"/>
      <point x="120" y="351" type="curve" smooth="yes"/>
      <point x="120" y="384"/>
      <point x="93" y="409"/>
      <point x="60" y="409" type="curve" smooth="yes"/>
      <point x="27" y="409"/>
      <point x="0" y="384"/>
      <point x="0" y="351" type="curve" smooth="yes"/>
      <point x="0" y="318"/>
      <point x="27" y="291"/>
    </contour>
    <contour>
      <point x="252" y="291" type="curve" smooth="yes"/>
      <point x="285" y="291"/>
      <point x="312" y="318"/>
      <point x="312" y="351" type="curve" smooth="yes"/>
      <point x="312" y="384"/>
      <point x="285" y="409"/>
      <point x="252" y="409" type="curve" smooth="yes"/>
      <point x="219" y="409"/>
      <point x="192" y="384"/>
      <point x="192" y="351" type="curve" smooth="yes"/>
      <point x="192" y="318"/>
      <point x="219" y="291"/>
    </contour>
  </outline>
</glyph>
<glyph name="twodotshorizontalbelow-ar" format="2">
  <anchor x="160" y="0" name="_bottom"/>
  <outline>
    <contour>
      <point x="72" y="-208" type="curve" smooth="yes"/>
      <point x="112" y="-208"/>
      <point x="144" y="-176"/>
      <point x="144" y="-136" type="curve" smooth="yes"/>
      <point x="144" y="-96"/>
      <point x="112" y="-64"/>
      <point x="72" y="-64" type="curve" smooth="yes"/>
      <point x="32" y="-64"/>
      <point x="0" y="-96"/>
      <point x="0" y="-136" type="curve" smooth="yes"/>
      <point x="0" y="-176"/>
      <point x="32" y="-208"/>
    </contour>
    <contour>
      <point x="248" y="-208" type="curve" smooth="yes"/>
      <point x="288" y="-208"/>
      <point x="320" y="-176"/>
      <point x="320" y="-136" type="curve" smooth="yes"/>
      <point x="320" y="-96"/>
      <point x="288" y="-64"/>
      <point x="248" y="-64" type="curve" smooth="yes"/>
      <point x="208" y="-64"/>
      <point x="176" y="-96"/>
      <point x="176" y="-136" type="curve" smooth="yes"/>
      <point x="176" y="-176"/>
      <point x="208" y="-208"/>
    </contour>
  </outline>
</glyph>
<glyph name="wasla-ar" format="2">
  <anchor x="254" y="512" name="_top"/>
  <anchor x="270" y="704" name="top"/>
  <outline>
    <contour>
      <point x="195" y="605" type="curve"/>
      <point x="168" y="605" type="line"/>
      <point x="168" y="571" type="line"/>
      <point x="345" y="571" type="line"/>
      <point x="345" y="605" type="line" smooth="yes"/>
      <point x="345" y="649"/>
      <point x="309" y="678"/>
      <point x="270" y="678" type="curve" smooth="yes"/>
      <point x="231" y="678"/>
      <point x="195" y="649"/>
    </contour>
    <contour>
      <point x="230" y="605" type="line"/>
      <point x="230" y="627"/>
      <point x="247" y="644"/>
      <point x="270" y="644" type="curve" smooth="yes"/>
      <point x="293" y="644"/>
      <point x="310" y="627"/>
      <point x="310" y="605" type="curve"/>
    </contour>
  </outline>
</glyph>
<glyph name="waw-ar.fina" format="2">
  <advance width="512"/>
  <anchor x="296" y="336" name="top"/>
  <outline>
    <contour>
      <point x="208" y="-208" type="curve" smooth="yes"/>
      <point x="304" y="-208" type="line" smooth="yes"/>
      <point x="400" y="-208"/>
      <point x="432" y="-176"/>
      <point x="432" y="-80" type="curve" smooth="yes"/>
      <point x="432" y="-8" type="line"/>
      <point x="440" y="0" type="line"/>
      <point x="472" y="0" type="line"/>
      <point x="480" y="8" type="line"/>
      <point x="480" y="72" type="line"/>
      <point x="472" y="80" type="line"/>
      <point x="440" y="80" type="line"/>
      <point x="432" y="88" type="line"/>
      <point x="432" y="184" type="line" smooth="yes"/>
      <point x="432" y="264"/>
      <point x="384" y="312"/>
      <point x="304" y="312" type="curve" smooth="yes"/>
      <point x="288" y="312" type="line" smooth="yes"/>
      <point x="208" y="312"/>
      <point x="160" y="264"/>
      <point x="160" y="184" type="curve" smooth="yes"/>
      <point x="160" y="104" type="line" smooth="yes"/>
      <point x="160" y="32"/>
      <point x="192" y="0"/>
      <point x="264" y="0" type="curve" smooth="yes"/>
      <point x="352" y="0" type="line"/>
      <point x="360" y="-8" type="line"/>
      <point x="360" y="-64" type="line" smooth="yes"/>
      <point x="360" y="-112"/>
      <point x="344" y="-128"/>
      <point x="296" y="-128" type="curve" smooth="yes"/>
      <point x="208" y="-128" type="line" smooth="yes"/>
      <point x="136" y="-128"/>
      <point x="112" y="-104"/>
      <point x="112" y="-32" type="curve" smooth="yes"/>
      <point x="112" y="-8" type="line"/>
      <point x="104" y="0" type="line"/>
      <point x="48" y="0" type="line"/>
      <point x="40" y="-8" type="line"/>
      <point x="40" y="-40" type="line" smooth="yes"/>
      <point x="40" y="-168"/>
      <point x="80" y="-208"/>
    </contour>
    <contour>
      <point x="232" y="112" type="curve" smooth="yes"/>
      <point x="232" y="176" type="line" smooth="yes"/>
      <point x="232" y="216"/>
      <point x="248" y="232"/>
      <point x="288" y="232" type="curve" smooth="yes"/>
      <point x="304" y="232" type="line" smooth="yes"/>
      <point x="344" y="232"/>
      <point x="360" y="216"/>
      <point x="360" y="176" type="curve" smooth="yes"/>
      <point x="360" y="88" type="line"/>
      <point x="352" y="80" type="line"/>
      <point x="264" y="80" type="line" smooth="yes"/>
      <point x="240" y="80"/>
      <point x="232" y="88"/>
    </contour>
  </outline>
</glyph>
